#N canvas 455 66 1274 911 12;
#X declare -path ../lib;
#X declare -path objects;
#X obj 362 34 tgl 15 0 empty empty empty 17 7 0 10 -262144 -1 -1 0
1;
#X obj 362 104 metro 300;
#X obj 362 129 random 8;
#X obj 65 15 declare -path ../lib;
#X obj 366 198 map;
#X obj 362 54 t f b, f 11;
#X msg 470 217 0 2 4 5 7 9 11;
#X obj 366 248 mtof;
#X obj 368 332 osc~;
#X obj 274 582 *~;
#X obj 274 607 out1~;
#X obj 228 386 osc~ 60;
#X obj 65 40 declare -path objects;
#X obj 713 784 hsl 60 15 0 1 0 0 \$0-slider_curve \$0-slider_curve-set
empty -2 -8 0 10 -262144 -1 -1 0 1;
#X msg 711 744 0.5;
#X obj 375 371 ad~;
#X obj 366 273 t b f;
#X obj 227 411 ad~;
#X obj 366 223 + 60;
#X obj 170 274 *;
#X obj 168 247 / 2;
#X obj 245 52 vsl 20 72 0 1 0 0 empty empty empty 0 -9 0 10 -262144
-1 -1 3300 1;
#X obj 168 196 * 6;
#X obj 168 172 expr 1 - $f1;
#X obj 269 175 *;
#X obj 269 200 *;
#X obj 262 264 *;
#X obj 129 70 tgl 15 0 empty empty empty 17 7 0 10 -262144 -1 -1 0
1;
#X obj 170 299 spigot;
#X obj 256 291 spigot;
#X obj 143 124 == 0;
#X obj 129 90 t b f;
#X connect 0 0 5 0;
#X connect 1 0 2 0;
#X connect 2 0 4 0;
#X connect 2 0 20 1;
#X connect 4 0 18 0;
#X connect 5 0 1 0;
#X connect 5 1 6 0;
#X connect 6 0 4 1;
#X connect 7 0 16 0;
#X connect 8 0 15 0;
#X connect 9 0 10 0;
#X connect 11 0 17 0;
#X connect 14 0 13 0;
#X connect 15 0 9 1;
#X connect 16 0 15 1;
#X connect 16 0 17 1;
#X connect 16 1 19 0;
#X connect 16 1 26 1;
#X connect 16 1 8 0;
#X connect 17 0 9 0;
#X connect 18 0 7 0;
#X connect 19 0 28 0;
#X connect 20 0 19 1;
#X connect 21 0 23 0;
#X connect 21 0 24 0;
#X connect 21 0 24 1;
#X connect 21 0 25 1;
#X connect 22 0 20 0;
#X connect 23 0 22 0;
#X connect 24 0 25 0;
#X connect 25 0 26 0;
#X connect 26 0 29 0;
#X connect 27 0 31 0;
#X connect 28 0 11 0;
#X connect 29 0 11 0;
#X connect 30 0 29 1;
#X connect 31 0 21 0;
#X connect 31 1 30 0;
#X connect 31 1 28 1;
