#N canvas 534 210 1330 785 12;
#X declare -path ../lib;
#X declare -path objects;
#X declare -path cadsr;
#X declare -path ../1.OBJECTS;
#X declare -path mod_cartridge;
#X declare -path ../0.Mixer;
#X declare -path ../abstractions;
#X declare -path ../0.net;
#N canvas 390 661 218 71 ... 0;
#N canvas 593 308 364 331 declarations_and_tables 0;
#X obj 43 36 declare -path ../lib;
#X obj 43 61 declare -path objects;
#X obj 43 86 declare -path cadsr;
#X obj 43 111 declare -path ../1.OBJECTS;
#X obj 43 136 declare -path mod_cartridge;
#X obj 43 161 declare -path ../0.Mixer;
#X obj 43 186 declare -path ../abstractions;
#X obj 43 211 declare -path ../0.net;
#X restore 10 11 pd declarations_and_tables;
#N canvas 793 607 382 196 init 0;
#X msg 23 74 0;
#X msg 58 51 120;
#X obj 58 76 s \$0-bpm-set;
#X obj 23 99 s \$0-pseudo_toggle-set;
#X obj 192 34 loadbang;
#X obj 189 91 s \$0-init-set;
#X msg 188 61 bang;
#X obj 24 21 r \$0-init;
#X connect 0 0 3 0;
#X connect 1 0 2 0;
#X connect 4 0 6 0;
#X connect 6 0 5 0;
#X connect 7 0 0 0;
#X connect 7 0 1 0;
#X restore 10 33 pd init;
#X restore 146 215 pd ...;
#X obj 198 204 bng 32 250 50 0 \$0-init \$0-init-set empty 17 7 0 10
#fcfcfc #000000 #000000;
#X obj 47 111 tgl 32 0 empty \$0-pseudo_toggle-set empty 17 7 0 10
#fcfcfc #000000 #000000 0 1;
#N canvas 0 -349 1678 1378 pseudo_seq 0;
#X obj 99 225 random 8;
#X obj 105 311 map;
#X msg 339 259 0 2 4 5 7 9 11;
#X obj 338 232 sel 1;
#X obj 107 340 + 60;
#X obj 100 158 metro 500;
#X obj 107 68 inlet;
#X obj 107 365 t f b, f 6;
#X obj 249 64 inlet;
#X obj 249 89 expr 60000 / $f1;
#X obj 249 114 t f f;
#X obj 148 393 f;
#X obj 115 418 pack 0 0;
#X msg 116 450 \$1 80 \$2;
#X obj 94 541 outlet;
#X obj 395 62 inlet;
#X obj 310 190 * 0.7;
#X obj 86 139 s \$0-clock;
#X obj 480 64 hradio 15 1 0 6 \$0-progression \$0-progression-set empty
0 -8 0 10 #fcfcfc #000000 #000000 0;
#N canvas 0 50 450 250 (subpatch) 0;
#X array \$0-random 6 float 3;
#A 0 471.429 0 128.571 0 285.714 64.2857;
#X coords 0 1000 6 0 200 140 1 0 0;
#X restore 670 74 graph;
#X obj 332 463 r \$0-clock;
#X obj 332 513 f;
#X obj 332 538 + 1;
#X obj 332 563 %;
#X obj 332 588 sel 0;
#X obj 327 636 bng 15 250 50 0 empty empty empty 17 7 0 10 #fcfcfc
#000000 #000000;
#X obj 327 656 array random \$0-random;
#X obj 327 681 s \$0-progression-set;
#X msg 748 307 const 0;
#X obj 748 332 s \$0-random;
#X obj 382 536 random 30;
#N canvas 0 125 830 733 scales 0;
#X obj 228 42 sel 0 1 2 3 4 5;
#X msg 133 127 0 4 7 11 14 16 19;
#X msg 153 158 0 4 9 12 14 16 19;
#X msg 219 215 0 5 9 11 14 19 21;
#X msg 239 242 0 2 7 9 12 16 19;
#X msg 183 188 -1 2 7 11 14 18 19;
#X msg 219 268 -1 2 5 8 11 14 23;
#X obj 114 317 outlet;
#X obj 173 22 inlet;
#X connect 0 0 1 0;
#X connect 0 1 2 0;
#X connect 0 2 5 0;
#X connect 0 3 3 0;
#X connect 0 4 4 0;
#X connect 0 5 6 0;
#X connect 1 0 7 0;
#X connect 2 0 7 0;
#X connect 3 0 7 0;
#X connect 4 0 7 0;
#X connect 5 0 7 0;
#X connect 6 0 7 0;
#X connect 8 0 0 0;
#X restore 349 287 pd scales;
#X obj 169 227 random 8;
#X obj 174 315 map;
#X obj 175 337 + 48;
#X obj 188 367 t f b, f 6;
#X obj 229 395 f;
#X obj 196 420 pack 0 0;
#X msg 197 452 \$1 80 \$2;
#X obj 195 533 outlet;
#X connect 0 0 1 0;
#X connect 1 0 4 0;
#X connect 2 0 1 1;
#X connect 2 0 33 1;
#X connect 3 0 2 0;
#X connect 4 0 7 0;
#X connect 5 0 0 0;
#X connect 5 0 17 0;
#X connect 5 0 32 0;
#X connect 6 0 5 0;
#X connect 6 0 3 0;
#X connect 7 0 12 0;
#X connect 7 1 11 0;
#X connect 8 0 9 0;
#X connect 9 0 10 0;
#X connect 10 0 5 1;
#X connect 10 1 16 0;
#X connect 11 0 12 1;
#X connect 12 0 13 0;
#X connect 13 0 14 0;
#X connect 15 0 16 1;
#X connect 16 0 11 1;
#X connect 16 0 36 1;
#X connect 18 0 31 0;
#X connect 20 0 21 0;
#X connect 21 0 22 0;
#X connect 22 0 23 0;
#X connect 23 0 21 1;
#X connect 23 0 24 0;
#X connect 24 0 25 0;
#X connect 25 0 26 0;
#X connect 25 0 30 0;
#X connect 26 0 27 0;
#X connect 28 0 29 0;
#X connect 30 0 23 1;
#X connect 31 0 1 1;
#X connect 31 0 33 1;
#X connect 32 0 33 0;
#X connect 33 0 34 0;
#X connect 34 0 35 0;
#X connect 35 0 37 0;
#X connect 35 1 36 0;
#X connect 36 0 37 1;
#X connect 37 0 38 0;
#X connect 38 0 39 0;
#X restore 45 216 pd pseudo_seq;
#X obj 48 171 hradio 17 1 0 8 empty empty empty 0 -8 0 10 #fcfcfc #000000
#000000 0;
#X floatatom 48 147 5 0 999 1 bpm \$0-bpm-set \$0-bpm 0;
#N canvas 273 269 419 719 bpm.pres 0;
#X obj 74 26 inlet;
#X obj 79 354 outlet;
#X msg 186 141 120;
#X msg 66 141 30;
#X msg 106 141 60;
#X msg 146 141 90;
#X msg 221 141 180;
#X msg 261 141 240;
#X msg 301 141 360;
#X msg 341 141 480;
#X obj 65 109 sel 0 1 2 3 4 5 6 7;
#X obj 196 281 r \$0-bpm;
#X connect 0 0 10 0;
#X connect 2 0 1 0;
#X connect 3 0 1 0;
#X connect 4 0 1 0;
#X connect 5 0 1 0;
#X connect 6 0 1 0;
#X connect 7 0 1 0;
#X connect 8 0 1 0;
#X connect 9 0 1 0;
#X connect 10 0 3 0;
#X connect 10 1 4 0;
#X connect 10 2 5 0;
#X connect 10 3 2 0;
#X connect 10 4 6 0;
#X connect 10 5 7 0;
#X connect 10 6 8 0;
#X connect 10 7 9 0;
#X connect 11 0 1 0;
#X restore 48 193 pd bpm.pres;
#X obj 324 18 3x_mixer \$0;
#X obj 16 574 throw~ \$0-channel_1;
#X obj 20 552 throw~ \$0-channel_2;
#X obj 275 685 r \$0-net_out;
#X obj 211 655 s \$0-msg;
#X obj 277 664 net_in \$0 12358 net_out;
#X obj 69 240 synth~ \$0 1;
#X obj 2 388 synth~ \$0 2;
#X connect 2 0 3 0;
#X connect 3 0 13 0;
#X connect 3 1 14 0;
#X connect 4 0 6 0;
#X connect 6 0 3 1;
#X connect 10 0 11 0;
#X connect 13 0 8 0;
#X connect 14 0 9 0;
