#N canvas 364 24 1261 792 12;
#X declare -path ../lib;
#X declare -path objects;
#X declare -path cadsr;
#X declare -path ../1.OBJECTS;
#X obj 40 363 out1~;
#X obj 47 27 tgl 32 0 empty \$0-pseudo_toggle-set empty 17 7 0 10 -262144
-1 -1 0 1;
#N canvas 186 267 744 562 pseudo_seq 0;
#X obj 102 263 random 8;
#X obj 102 288 map;
#X msg 177 266 0 2 4 5 7 9 11;
#X obj 176 239 sel 1;
#X obj 102 313 + 60;
#X obj 100 158 metro 500;
#X obj 107 68 inlet;
#X obj 102 338 t f b, f 15;
#X obj 249 64 inlet;
#X obj 249 89 expr 60000 / $f1;
#X obj 249 114 t f f;
#X obj 212 390 f;
#X obj 115 418 pack 0 0;
#X msg 116 450 \$1 80 \$2;
#X obj 116 475 outlet;
#X obj 395 62 inlet;
#X obj 310 190 * 0.7;
#X obj 100 182 s \$0-clock;
#X connect 0 0 1 0;
#X connect 1 0 4 0;
#X connect 2 0 1 1;
#X connect 3 0 2 0;
#X connect 4 0 7 0;
#X connect 5 0 0 0;
#X connect 5 0 17 0;
#X connect 6 0 5 0;
#X connect 6 0 3 0;
#X connect 7 0 12 0;
#X connect 7 1 11 0;
#X connect 8 0 9 0;
#X connect 9 0 10 0;
#X connect 10 0 5 1;
#X connect 10 1 16 0;
#X connect 11 0 12 1;
#X connect 12 0 13 0;
#X connect 13 0 14 0;
#X connect 15 0 16 1;
#X connect 16 0 11 1;
#X restore 42 66 pd pseudo_seq;
#X floatatom 86 32 5 0 999 0 - #0-bpm-set -;
#N canvas 523 676 218 71 ... 0;
#N canvas 593 301 384 171 declarations_and_tables 0;
#X obj 43 36 declare -path ../lib;
#X obj 43 61 declare -path objects;
#X obj 43 86 declare -path cadsr;
#X obj 43 111 declare -path ../1.OBJECTS;
#X restore 10 11 pd declarations_and_tables;
#N canvas 793 607 382 196 init 0;
#X msg 23 74 0;
#X msg 58 51 120;
#X obj 58 76 s \$0-bpm-set;
#X obj 23 99 s \$0-pseudo_toggle-set;
#X obj 192 34 loadbang;
#X obj 189 91 s \$0-init-set;
#X msg 188 61 bang;
#X obj 24 21 r \$0-init;
#X connect 0 0 3 0;
#X connect 1 0 2 0;
#X connect 4 0 6 0;
#X connect 6 0 5 0;
#X connect 7 0 0 0;
#X connect 7 0 1 0;
#X restore 10 33 pd init;
#X restore 125 32 pd ...;
#X obj 139 54 bng 32 250 50 0 \$0-init \$0-init-set empty 17 7 0 10
-262144 -1 -1;
#X obj 55 111 synth~ \$0 1;
#X connect 1 0 2 0;
#X connect 2 0 6 0;
#X connect 3 0 2 1;
#X connect 6 0 0 0;
