#N canvas 400 59 1003 787 12;
#X obj 137 465 *~, f 5;
#N canvas 166 59 736 957 ringmod 0;
#X obj 190 446 *~;
#X obj 124 32 inlet~;
#X obj 179 722 outlet~;
#X obj 124 57 *~ 0.25;
#X obj 185 566 tabosc4~ \$2-vib;
#X obj 194 119 * 8;
#X obj 194 144 sig~;
#X obj 194 43 r \$2-ringmod;
#X obj 297 72 sig~;
#X obj 194 169 *~;
#X obj 297 47 r \$2-mod_rm;
#X obj 580 26 r \$2-init;
#X obj 580 51 t b b;
#X obj 612 94 s \$2-ringmod-set;
#X msg 569 91 1;
#N canvas 225 213 553 669 bitcrush 0;
#X obj 45 24 inlet~;
#X obj 37 615 outlet~;
#X obj 185 29 r \$2-bitcrush_ring;
#X obj 185 79 * 0.95;
#X obj 185 54 t f f, f 15;
#N canvas 0 59 423 520 crush 0;
#X obj 84 87 inlet~;
#X obj 205 89 inlet;
#X obj 67 456 outlet~;
#X obj 149 196 sig~;
#X obj 82 209 /~;
#X obj 82 284 expr~ int($v1);
#X obj 82 339 *~;
#X connect 0 0 4 0;
#X connect 1 0 3 0;
#X connect 3 0 4 1;
#X connect 3 0 6 1;
#X connect 4 0 5 0;
#X connect 5 0 6 0;
#X connect 6 0 2 0;
#X restore 43 173 pd crush;
#X obj 46 307 *~;
#X obj 89 215 > 0;
#X obj 287 212 == 0;
#X obj 89 240 sig~;
#X obj 160 304 *~;
#X obj 287 237 sig~;
#X connect 0 0 5 0;
#X connect 0 0 10 0;
#X connect 2 0 4 0;
#X connect 3 0 5 1;
#X connect 4 0 3 0;
#X connect 4 1 7 0;
#X connect 4 1 8 0;
#X connect 5 0 6 0;
#X connect 6 0 1 0;
#X connect 7 0 9 0;
#X connect 8 0 11 0;
#X connect 9 0 6 1;
#X connect 10 0 1 0;
#X connect 11 0 10 1;
#X restore 181 601 pd bitcrush;
#X connect 0 0 4 0;
#X connect 1 0 3 0;
#X connect 3 0 0 0;
#X connect 4 0 15 0;
#X connect 5 0 6 0;
#X connect 6 0 9 0;
#X connect 7 0 5 0;
#X connect 8 0 9 1;
#X connect 9 0 0 1;
#X connect 10 0 8 0;
#X connect 11 0 12 0;
#X connect 12 0 14 0;
#X connect 12 1 13 0;
#X connect 14 0 8 0;
#X connect 15 0 2 0;
#X restore 207 418 pd ringmod;
#N canvas 623 260 450 300 shaper 0;
#X obj 94 104 phasor~;
#X obj 94 129 *~ 512;
#X obj 94 179 *~ 512;
#X obj 94 75 +~;
#X obj 103 37 inlet~;
#X obj 94 279 outlet~;
#X obj 94 154 tabread4~ \$2-wf;
#X obj 94 204 tabread4~ \$2-tf;
#X connect 0 0 1 0;
#X connect 1 0 6 0;
#X connect 2 0 7 0;
#X connect 3 0 0 0;
#X connect 4 0 3 0;
#X connect 6 0 2 0;
#X connect 7 0 5 0;
#X restore 128 418 pd shaper;
#N canvas 592 143 667 791 adsr 0;
#X obj 358 156 sel 1;
#X obj 418 248 f;
#X floatatom 409 321 5 0 0 0 - - -;
#X obj 410 437 cadsr~;
#X obj 455 168 * 0.00787402;
#X obj 101 215 inlet~;
#X obj 120 619 *~;
#X obj 120 644 outlet~;
#X obj 455 143 r \$0-velocity;
#X obj 436 400 r \$2-adsr;
#X obj 358 129 r \$0-trigger;
#X connect 0 0 1 0;
#X connect 0 1 2 0;
#X connect 1 0 2 0;
#X connect 2 0 3 0;
#X connect 3 0 6 1;
#X connect 4 0 1 1;
#X connect 5 0 6 0;
#X connect 6 0 7 0;
#X connect 8 0 4 0;
#X connect 9 0 3 1;
#X connect 10 0 0 0;
#X restore 140 685 pd adsr;
#N canvas 903 506 823 513 midi 0;
#X obj 28 29 r \$0-pitch;
#X obj 27 431 *~;
#X obj 424 233 / 6;
#X obj 353 341 *~;
#X obj 353 370 +~ 1;
#X obj 424 145 *;
#X obj 424 174 *;
#X obj 424 203 * 3800;
#X obj 599 216 *;
#X obj 599 245 * 900;
#X obj 599 274 / 6923;
#X obj 599 303 pack 0 30;
#X obj 599 332 line~;
#X floatatom 464 238 5 0 0 0 - - -;
#X floatatom 650 257 5 0 0 0 - - -;
#X obj 27 456 outlet~;
#X obj 424 116 r \$2-vibrato_speed;
#X obj 599 187 r \$2-vibrato_depth;
#X obj 424 262 tabosc4~ \$2-vib;
#N canvas 502 371 342 373 octave 0;
#X obj 48 22 inlet;
#X obj 25 300 outlet;
#X obj 84 100 r \$2-pitch_octave;
#X obj 84 175 + 0.5;
#X obj 84 200 i;
#X obj 84 150 - 4;
#X obj 84 125 * 7;
#X obj 84 225 * 12;
#X obj 45 59 t f b b;
#X obj 50 232 f;
#X obj 116 134 s \$2-pitch_octave-set;
#X obj 21 260 +;
#X connect 0 0 8 0;
#X connect 2 0 6 0;
#X connect 3 0 4 0;
#X connect 4 0 7 0;
#X connect 5 0 3 0;
#X connect 6 0 5 0;
#X connect 7 0 9 1;
#X connect 8 0 11 0;
#X connect 8 1 9 0;
#X connect 8 2 10 0;
#X connect 9 0 11 1;
#X connect 11 0 1 0;
#X restore 29 68 pd octave;
#N canvas 0 66 452 597 detune 0;
#X obj 113 48 inlet;
#X obj 132 499 outlet;
#X obj 176 85 r \$2-pitch_detune;
#X obj 221 148 s \$2-pitch_detune-set;
#X obj 162 198 f;
#X obj 113 73 t f b b;
#X obj 162 275 * 100;
#X obj 162 325 random;
#X obj 162 300 t b f f;
#X obj 230 346 * 0.5;
#X obj 162 350 -;
#X obj 162 400 + 1;
#X obj 176 110 *;
#X obj 162 375 * 0.003;
#X msg 173 42 1;
#X obj 132 437 *;
#X connect 0 0 5 0;
#X connect 2 0 12 0;
#X connect 2 0 12 1;
#X connect 4 0 6 0;
#X connect 5 0 15 0;
#X connect 5 1 4 0;
#X connect 5 2 3 0;
#X connect 6 0 8 0;
#X connect 7 0 10 0;
#X connect 8 0 7 0;
#X connect 8 1 7 1;
#X connect 8 2 9 0;
#X connect 9 0 10 1;
#X connect 10 0 13 0;
#X connect 11 0 15 1;
#X connect 12 0 4 1;
#X connect 13 0 11 0;
#X connect 14 0 5 0;
#X connect 15 0 1 0;
#X restore 26 136 pd detune;
#X obj 28 102 tabread4 \$2-mtof;
#X obj 26 252 pack 0 0;
#X obj 26 277 line~;
#X obj 106 137 r \$2-portamento;
#X obj 106 162 *;
#X obj 93 222 * 4800;
#X obj 106 187 *;
#X connect 0 0 19 0;
#X connect 1 0 15 0;
#X connect 2 0 13 0;
#X connect 2 0 18 0;
#X connect 3 0 4 0;
#X connect 4 0 1 1;
#X connect 5 0 6 0;
#X connect 6 0 7 0;
#X connect 7 0 2 0;
#X connect 8 0 9 0;
#X connect 9 0 10 0;
#X connect 10 0 11 0;
#X connect 10 0 14 0;
#X connect 11 0 12 0;
#X connect 12 0 3 1;
#X connect 16 0 5 0;
#X connect 16 0 5 1;
#X connect 16 0 6 1;
#X connect 17 0 8 0;
#X connect 17 0 8 1;
#X connect 18 0 3 0;
#X connect 19 0 21 0;
#X connect 20 0 22 0;
#X connect 21 0 20 0;
#X connect 22 0 23 0;
#X connect 23 0 1 0;
#X connect 24 0 25 0;
#X connect 24 0 25 1;
#X connect 24 0 27 1;
#X connect 25 0 27 0;
#X connect 26 0 22 1;
#X connect 27 0 26 0;
#X restore 140 359 pd midi;
#X obj 401 26 tgl 30 0 \$0-trigger \$0-trigger-set empty 17 7 0 10
-262144 -1 -1 0 1;
#X floatatom 401 72 4 0 0 0 velocity #0-velocity-set #0-velocity;
#X floatatom 401 93 4 0 0 0 pitch #0-pitch-set #0-pitch;
#X obj 39 36 inlet;
#X obj 138 714 outlet~;
#X obj 39 61 unpack 0 0;
#X obj 39 86 swap;
#X obj 8 120 t f f;
#X obj 8 145 != 0;
#X obj 23 255 s \$0-trigger-set;
#X obj 75 158 sel 0;
#X obj 56 121 s \$0-pitch-set;
#X obj 58 217 s \$0-velocity-set;
#N canvas 0 59 939 1112 bitcrusher_wf 0;
#X obj 519 243 f;
#X obj 643 200 t b f f;
#X obj 519 268 t f b f;
#X obj 614 335 f;
#X obj 380 352 == 0;
#X obj 330 352 == 0;
#X obj 330 387 &&;
#X obj 486 369 *;
#X obj 486 394 * 24;
#X obj 486 444 + 2;
#X floatatom 486 469 5 0 0 0 - - -;
#X obj 486 419 clip 0 22;
#X obj 614 363 *;
#X obj 614 388 *;
#X obj 614 413 * 48000;
#X obj 614 463 + 100;
#X floatatom 655 464 12 0 0 0 - - -;
#X obj 199 605 bit~, f 27;
#X obj 142 557 *~;
#X obj 199 630 *~;
#X obj 370 412 == 0;
#X obj 330 412 sig~;
#X obj 370 437 sig~;
#X obj 102 118 inlet~;
#X obj 153 880 outlet~;
#X obj 614 438 clip 0 43990;
#X obj 516 114 r \$2-bit_depth;
#X obj 643 114 r \$2-bit_rate;
#X obj 516 139 expr 1 - $f1;
#X obj 643 139 expr 1 - $f1;
#X connect 0 0 2 0;
#X connect 1 0 0 0;
#X connect 1 1 3 1;
#X connect 1 2 4 0;
#X connect 2 0 7 0;
#X connect 2 0 7 1;
#X connect 2 1 3 0;
#X connect 2 2 5 0;
#X connect 3 0 12 0;
#X connect 3 0 12 1;
#X connect 3 0 13 1;
#X connect 4 0 6 1;
#X connect 5 0 6 0;
#X connect 6 0 20 0;
#X connect 6 0 21 0;
#X connect 7 0 8 0;
#X connect 8 0 11 0;
#X connect 9 0 10 0;
#X connect 9 0 17 1;
#X connect 11 0 9 0;
#X connect 12 0 13 0;
#X connect 13 0 14 0;
#X connect 14 0 25 0;
#X connect 15 0 16 0;
#X connect 15 0 17 2;
#X connect 17 0 19 0;
#X connect 18 0 24 0;
#X connect 19 0 24 0;
#X connect 20 0 22 0;
#X connect 21 0 18 1;
#X connect 22 0 19 1;
#X connect 23 0 18 0;
#X connect 23 0 17 0;
#X connect 25 0 15 0;
#X connect 26 0 28 0;
#X connect 27 0 29 0;
#X connect 28 0 0 0;
#X connect 29 0 1 0;
#X restore 143 533 pd bitcrusher_wf;
#X connect 0 0 18 0;
#X connect 1 0 0 1;
#X connect 2 0 0 0;
#X connect 3 0 9 0;
#X connect 4 0 2 0;
#X connect 4 0 1 0;
#X connect 8 0 10 0;
#X connect 10 0 11 0;
#X connect 10 1 11 1;
#X connect 11 0 12 0;
#X connect 11 1 16 0;
#X connect 12 0 13 0;
#X connect 12 1 15 0;
#X connect 13 0 14 0;
#X connect 15 1 17 0;
#X connect 18 0 3 0;
