#N canvas 184 359 886 620 12;
#X obj 181 165 t f f;
#X obj 187 239 t b f;
#X obj 181 378 send;
#X obj 187 304 f \$0;
#X obj 187 329 pack 0 0;
#X msg 187 354 symbol \$1-\$2-set;
#X obj 235 281 + 1;
#N canvas 448 311 1183 542 output 0;
#X obj 28 206 s \$0-1-set;
#X obj 118 7 r \$0-1;
#X obj 198 7 r \$0-2;
#X obj 278 7 r \$0-3;
#X obj 30 115 symbol \$3;
#X obj 35 137 symbol \$4;
#X obj 30 159 pack s s;
#X obj 118 32 t f b b b;
#X obj 198 32 t f b b b;
#X obj 278 32 t f b b b;
#X obj 150 115 symbol \$3;
#X obj 155 137 symbol \$4;
#X obj 150 159 pack s s;
#X obj 290 115 symbol \$3;
#X obj 295 137 symbol \$4;
#X obj 290 159 pack s s;
#X obj 148 206 s \$0-2-set;
#X obj 288 206 s \$0-3-set;
#X obj 113 331 outlet;
#X obj 645 222 s \$0-1-set;
#X obj 645 252 s \$0-2-set;
#X obj 645 282 s \$0-3-set;
#X obj 644 127 symbol \$3;
#X obj 413 35 t f b b b;
#X obj 425 118 symbol \$3;
#X obj 430 140 symbol \$4;
#X obj 425 162 pack s s;
#X obj 171 258 + 7;
#X obj 251 258 + 14;
#X obj 386 261 + 21;
#X obj 645 312 s \$0-4-set;
#X obj 413 10 r \$0-4;
#X obj 423 209 s \$0-4-set;
#X msg 423 186 color \$1 \$2 #9f9f9f;
#X msg 288 183 color \$1 \$2 #9f9f9f;
#X msg 148 183 color \$1 \$2 #9f9f9f;
#X msg 28 183 color \$1 \$2 #9f9f9f;
#X msg 645 152 color \$1 \$1 #9f9f9f;
#X connect 1 0 7 0;
#X connect 2 0 8 0;
#X connect 3 0 9 0;
#X connect 4 0 6 0;
#X connect 5 0 6 1;
#X connect 6 0 36 0;
#X connect 7 0 18 0;
#X connect 7 1 4 0;
#X connect 7 2 5 0;
#X connect 7 3 22 0;
#X connect 8 0 27 0;
#X connect 8 1 10 0;
#X connect 8 2 11 0;
#X connect 8 3 22 0;
#X connect 9 0 28 0;
#X connect 9 1 13 0;
#X connect 9 2 14 0;
#X connect 9 3 22 0;
#X connect 10 0 12 0;
#X connect 11 0 12 1;
#X connect 12 0 35 0;
#X connect 13 0 15 0;
#X connect 14 0 15 1;
#X connect 15 0 34 0;
#X connect 22 0 37 0;
#X connect 23 0 29 0;
#X connect 23 1 24 0;
#X connect 23 2 25 0;
#X connect 23 3 22 0;
#X connect 24 0 26 0;
#X connect 25 0 26 1;
#X connect 26 0 33 0;
#X connect 27 0 18 0;
#X connect 28 0 18 0;
#X connect 29 0 18 0;
#X connect 31 0 23 0;
#X connect 33 0 32 0;
#X connect 34 0 17 0;
#X connect 35 0 16 0;
#X connect 36 0 0 0;
#X connect 37 0 19 0;
#X connect 37 0 20 0;
#X connect 37 0 21 0;
#X connect 37 0 30 0;
#X restore 590 77 pd output;
#X obj 22 22 hradio 14 1 0 7 \$0-1 \$0-1-set empty 0 -8 0 12 -261619
-257983 -162280 4;
#X obj 22 36 hradio 14 1 0 7 \$0-2 \$0-2-set empty 0 -8 0 10 -261619
-261619 -162280 2;
#X obj 22 50 hradio 14 1 0 7 \$0-3 \$0-3-set empty 0 -8 0 10 -261619
-261619 -162280 6;
#X obj 181 98 r \$1-\$2-set;
#X obj 589 128 s \$1-\$2;
#X obj 22 64 hradio 14 1 0 7 \$0-4 \$0-4-set \$2 75 9 1 14 -261619
-261619 -162280 1;
#X floatatom 590 102 5 0 0 0 - - -;
#X msg 477 60 14 4;
#X obj 477 85 *;
#X floatatom 477 110 5 0 0 0 - - -;
#X obj 181 142 clip 0 27;
#X obj 187 214 div 7;
#X obj 181 191 % 7;
#X connect 0 0 20 0;
#X connect 0 1 19 0;
#X connect 1 0 3 0;
#X connect 1 1 6 0;
#X connect 3 0 4 0;
#X connect 4 0 5 0;
#X connect 5 0 2 1;
#X connect 6 0 4 1;
#X connect 7 0 12 0;
#X connect 7 0 14 0;
#X connect 11 0 18 0;
#X connect 15 0 16 0;
#X connect 16 0 17 0;
#X connect 18 0 0 0;
#X connect 19 0 1 0;
#X connect 20 0 2 0;
#X coords 0 -1 1 1 102 60 2 20 20;
