#N canvas 429 204 938 876 12;
#X obj 34 33 vsl 20 72 0 1 0 0 \$0-slider_attack \$0-slider_attack-set
empty 0 -9 0 10 -191407 -262130 -1 0 1;
#X obj 56 33 vsl 20 72 0 1 0 0 \$0-slider_decay \$0-slider_decay-set
empty 0 -9 0 10 -191407 -262130 -1 2870 1;
#X obj 12 33 vsl 20 72 0 1 0 0 \$0-slider_delay \$0-slider_delay-set
empty 0 -9 0 10 -191407 -262130 -1 1000 1;
#X obj 15 14 hsl 59 15 0 1 0 0 \$0-slider_curve \$0-slider_curve-set
empty -2 -8 0 10 -191407 -262130 -1 4700 1;
#X msg 172 54 0.5;
#X obj 208 31 loadbang;
#X msg 208 56 0;
#X msg 252 57 0.7;
#X obj 127 388 vline~;
#X msg 121 334 1 \$1 \, 0 \$2 \$1;
#X obj 125 282 list;
#X obj 228 337 sig~;
#X obj 126 414 pow~;
#X obj 121 255 del;
#X msg 186 211 \$2 \$3;
#X msg 152 211 \$1;
#X msg 239 218 \$4;
#N canvas 470 154 729 618 adsr_list 0;
#X obj 127 129 *;
#X obj 127 154 *;
#X obj 127 179 * 4800;
#X obj 177 129 *;
#X obj 177 154 *;
#X obj 177 179 * 4800;
#X obj 71 132 *;
#X obj 71 182 * 4800;
#X obj 127 229 t b f;
#X obj 177 229 t b f;
#X obj 73 230 t b f;
#X obj 78 346 f;
#X obj 132 346 f;
#X obj 182 346 f;
#X obj 80 54 r \$0-slider_attack;
#X obj 124 77 r \$0-slider_decay;
#X obj 63 29 r \$0-slider_delay;
#X obj 266 37 r \$0-slider_curve;
#X obj 269 63 * 2;
#X obj 269 88 - 1;
#X obj 269 113 moses 0, f 16;
#X obj 269 138 abs;
#X obj 269 163 expr ((1 - $f1) * 0.6) + 0.4, f 11;
#X obj 389 174 * 2;
#X obj 389 199 + 1;
#X obj 78 371 pack 0 0 0 0;
#X obj 78 291 t b b b b;
#X obj 264 228 t b f;
#X obj 219 346 f;
#X obj 78 396 s \$0-adsr_list;
#X obj 127 204 + 5;
#X obj 177 204 + 5;
#X connect 0 0 1 0;
#X connect 1 0 2 0;
#X connect 2 0 30 0;
#X connect 3 0 4 0;
#X connect 4 0 5 0;
#X connect 5 0 31 0;
#X connect 6 0 7 0;
#X connect 7 0 10 0;
#X connect 8 0 26 0;
#X connect 8 1 12 1;
#X connect 9 0 26 0;
#X connect 9 1 13 1;
#X connect 10 0 26 0;
#X connect 10 1 11 1;
#X connect 11 0 25 0;
#X connect 12 0 25 1;
#X connect 13 0 25 2;
#X connect 14 0 0 0;
#X connect 14 0 0 1;
#X connect 14 0 1 1;
#X connect 15 0 3 0;
#X connect 15 0 3 1;
#X connect 15 0 4 1;
#X connect 16 0 6 0;
#X connect 16 0 6 1;
#X connect 17 0 18 0;
#X connect 18 0 19 0;
#X connect 19 0 20 0;
#X connect 20 0 21 0;
#X connect 20 1 23 0;
#X connect 21 0 22 0;
#X connect 22 0 27 0;
#X connect 23 0 24 0;
#X connect 24 0 27 0;
#X connect 25 0 29 0;
#X connect 26 0 11 0;
#X connect 26 1 12 0;
#X connect 26 2 13 0;
#X connect 26 3 28 0;
#X connect 27 0 26 0;
#X connect 27 1 28 1;
#X connect 28 0 25 3;
#X connect 30 0 8 0;
#X connect 31 0 9 0;
#X restore 159 107 pd adsr_list;
#X obj 175 170 r \$0-adsr_list;
#X obj 98 146 inlet;
#X obj 98 171 route bang;
#X obj 31 162 inlet~;
#X obj 36 475 *~;
#X obj 36 500 outlet~;
#X connect 4 0 3 0;
#X connect 5 0 6 0;
#X connect 5 0 7 0;
#X connect 5 0 4 0;
#X connect 6 0 2 0;
#X connect 6 0 0 0;
#X connect 7 0 1 0;
#X connect 8 0 12 0;
#X connect 9 0 8 0;
#X connect 10 0 9 0;
#X connect 11 0 12 1;
#X connect 12 0 22 1;
#X connect 13 0 10 0;
#X connect 14 0 10 1;
#X connect 15 0 13 1;
#X connect 16 0 11 0;
#X connect 18 0 15 0;
#X connect 18 0 16 0;
#X connect 18 0 14 0;
#X connect 19 0 20 0;
#X connect 20 0 13 0;
#X connect 21 0 22 0;
#X connect 22 0 23 0;
#X coords 0 -1 1 1 68 102 2 10 10;
