#N canvas 287 282 507 550 10;
#X obj 157 228 sig~;
#X obj 139 412 expr~ int($v1 * ($v2)) / ($v2);
#X obj 160 360 samphold~;
#X obj 281 236 phasor~;
#X obj 161 48 inlet bit_depth;
#X obj 278 57 inlet bit_rate;
#X obj 14 45 inlet~;
#X obj 107 519 outlet~;
#X obj 161 71 i;
#X obj 161 122 expr pow(2 \, $f1) - 1;
#X connect 0 0 1 1;
#X connect 1 0 7 0;
#X connect 2 0 1 0;
#X connect 3 0 2 1;
#X connect 4 0 8 0;
#X connect 5 0 3 0;
#X connect 6 0 2 0;
#X connect 8 0 9 0;
#X connect 9 0 0 0;
