#N canvas 82 290 732 663 12;
#X obj 218 322 +;
#X obj 220 254 *;
#X obj 168 192 *;
#X obj 170 116 t f f f;
#N canvas 218 388 479 531 nuts 0;
#X obj 23 81 int;
#X obj 63 80 + 1;
#X obj 23 126 outlet;
#X obj 24 12 r \$0-run\$2;
#X msg 24 34 515;
#X obj 24 56 until 515;
#X obj 23 103 % 515;
#X connect 0 0 1 0;
#X connect 0 0 6 0;
#X connect 1 0 0 1;
#X connect 3 0 4 0;
#X connect 4 0 5 0;
#X connect 5 0 0 0;
#X connect 6 0 2 0;
#X restore 171 91 pd nuts;
#X obj 321 191 r \$0-1x;
#X obj 325 265 r \$0-2x;
#N canvas 133 66 1787 1562 bolts 0;
#X obj 257 665 - 1;
#X obj 257 687 abs;
#X obj 76 469 t b b f f, f 45;
#X msg 60 780 normalize 1;
#X obj 60 21 inlet;
#X obj 169 538 s \$0-run\$2;
#X obj 275 878 s \$0-1x;
#X obj 473 880 s \$0-2x;
#X obj 60 805 s \$1-\$4;
#X connect 0 0 1 0;
#X connect 1 0 6 0;
#X connect 2 0 3 0;
#X connect 2 1 5 0;
#X connect 2 2 0 0;
#X connect 2 3 7 0;
#X connect 3 0 8 0;
#X connect 4 0 2 0;
#X restore 493 299 pd bolts;
#X obj 480 83 inlet;
#X obj 189 349 tabwrite \$1-\$4;
#X obj 158 165 tabread \$1-t\$2;
#X obj 222 235 tabread \$1-t\$3;
#X connect 0 0 9 0;
#X connect 1 0 0 1;
#X connect 2 0 0 0;
#X connect 3 0 10 0;
#X connect 3 1 9 1;
#X connect 3 2 11 0;
#X connect 4 0 3 0;
#X connect 5 0 2 1;
#X connect 6 0 1 1;
#X connect 8 0 7 0;
#X connect 10 0 2 0;
#X connect 11 0 1 0;
