#N canvas 636 531 932 439 12;
#X obj 388 181 r \$1-\$2;
#X obj 372 204 f;
#X obj 440 96 s \$1-\$2-set;
#X obj 374 23 r \$1-preset_bank;
#X obj 377 71 spigot;
#X obj 389 46 r \$1-preset_toggle;
#X obj 377 96 t b f b;
#X obj 407 128 * 128;
#X obj 407 153 + \$4;
#X obj 551 24 r \$1-preset_bank;
#X obj 563 49 r \$1-preset_toggle;
#X obj 551 99 spigot;
#X obj 563 74 == 0;
#X obj 773 27 r \$1-init;
#X obj 773 52 f \$3;
#X obj 774 142 s \$1-\$2-set;
#X obj 551 229 s \$1-\$2-set;
#X obj 551 128 * 128;
#X obj 551 153 + \$4;
#X obj 372 229 tabwrite \$1-data;
#X obj 551 204 tabread \$1-data;
#X obj 873 37 bng 15 250 50 0 empty empty empty 17 7 0 10 -262144 -1
-1;
#X obj 98 77 r \$1-\$2;
#X obj 98 102 t f b;
#X obj 171 90 r \$1-autowrite;
#X obj 98 127 spigot;
#X obj 194 144 r \$1-preset_bank;
#X obj 110 318 tabwrite \$1-data;
#X obj 180 172 f;
#X obj 180 196 * 128;
#X obj 180 221 + \$4;
#X connect 0 0 1 1;
#X connect 1 0 19 0;
#X connect 3 0 4 0;
#X connect 4 0 6 0;
#X connect 5 0 4 1;
#X connect 6 0 1 0;
#X connect 6 1 7 0;
#X connect 6 2 2 0;
#X connect 7 0 8 0;
#X connect 8 0 19 1;
#X connect 9 0 11 0;
#X connect 10 0 12 0;
#X connect 11 0 17 0;
#X connect 12 0 11 1;
#X connect 13 0 14 0;
#X connect 14 0 15 0;
#X connect 17 0 18 0;
#X connect 18 0 20 0;
#X connect 20 0 16 0;
#X connect 21 0 14 0;
#X connect 22 0 23 0;
#X connect 23 0 25 0;
#X connect 23 1 28 0;
#X connect 24 0 25 1;
#X connect 25 0 27 0;
#X connect 26 0 28 1;
#X connect 28 0 29 0;
#X connect 29 0 30 0;
#X connect 30 0 27 1;
