#N canvas 526 398 894 641 12;
#N canvas 0 59 377 459 autowrite 0;
#X obj 98 77 r \$1-\$2;
#X obj 98 102 t f b;
#X obj 171 90 r \$1-autowrite;
#X obj 98 127 spigot;
#X obj 194 144 r \$1-preset_bank;
#X obj 110 318 tabwrite \$1-data;
#X obj 180 172 f;
#X obj 180 196 * 128;
#X obj 180 221 + \$4;
#X connect 0 0 1 0;
#X connect 1 0 3 0;
#X connect 1 1 6 0;
#X connect 2 0 3 1;
#X connect 3 0 5 0;
#X connect 4 0 6 1;
#X connect 6 0 7 0;
#X connect 7 0 8 0;
#X connect 8 0 5 1;
#X restore 62 61 pd autowrite;
#N canvas 36 147 294 357 write 0;
#X obj 56 191 r \$1-\$2;
#X obj 40 214 f;
#X obj 108 106 s \$1-\$2-set;
#X obj 42 33 r \$1-preset_bank;
#X obj 45 81 spigot;
#X obj 57 56 r \$1-preset_toggle;
#X obj 45 106 t b f b;
#X obj 75 138 * 128;
#X obj 75 163 + \$4;
#X obj 40 239 tabwrite \$1-data;
#X connect 0 0 1 1;
#X connect 1 0 9 0;
#X connect 3 0 4 0;
#X connect 4 0 6 0;
#X connect 5 0 4 1;
#X connect 6 0 1 0;
#X connect 6 1 7 0;
#X connect 6 2 2 0;
#X connect 7 0 8 0;
#X connect 8 0 9 1;
#X restore 62 83 pd write;
#N canvas 74 91 297 338 read 0;
#X obj 32 30 r \$1-preset_bank;
#X obj 44 55 r \$1-preset_toggle;
#X obj 32 105 spigot;
#X obj 44 80 == 0;
#X obj 32 235 s \$1-\$2-set;
#X obj 32 134 * 128;
#X obj 32 159 + \$4;
#X obj 32 210 tabread \$1-data;
#X connect 0 0 2 0;
#X connect 1 0 3 0;
#X connect 2 0 5 0;
#X connect 3 0 2 1;
#X connect 5 0 6 0;
#X connect 6 0 7 0;
#X connect 7 0 4 0;
#X restore 62 105 pd read;
#N canvas 0 59 407 448 init 0;
#X obj 122 306 f \$3;
#X obj 123 336 s \$1-\$2-set;
#X obj 222 51 bng 15 250 50 0 empty empty empty 17 7 0 10 #fcfcfc #000000
#000000;
#X obj 122 41 r \$1-init;
#X obj 122 66 del 150;
#X connect 0 0 1 0;
#X connect 2 0 0 0;
#X connect 3 0 4 0;
#X connect 3 0 0 0;
#X connect 4 0 0 0;
#X restore 62 127 pd init;
#X obj 165 61 r \$1-msg;
#X obj 165 86 route \$2;
#X obj 165 111 s \$1-\$2-set;
#X obj 390 74 r \$5-msg;
#X obj 407 111 route synth\$6;
#X obj 390 200 route \$2;
#X obj 390 225 s \$1-\$2-set;
#X connect 4 0 5 0;
#X connect 5 0 6 0;
#X connect 7 0 8 0;
#X connect 8 0 9 0;
#X connect 9 0 10 0;
