#N canvas 607 32 1199 1149 12;
#X obj 128 372 +;
#X obj 129 430 *;
#X obj 129 455 %;
#X obj 129 480 <;
#X obj 124 129 inlet position;
#X obj 401 129 inlet offset;
#X obj 228 129 inlet length;
#X obj 318 129 inlet beats;
#X obj 129 504 outlet;
#X obj 159 430 f \$1;
#X obj 184 385 f \$2;
#X obj 149 334 f \$3;
#X obj 492 128 loadbang;
#X connect 0 0 1 0;
#X connect 1 0 2 0;
#X connect 2 0 3 0;
#X connect 3 0 8 0;
#X connect 4 0 0 0;
#X connect 5 0 11 0;
#X connect 6 0 9 0;
#X connect 7 0 10 0;
#X connect 9 0 2 1;
#X connect 10 0 1 1;
#X connect 10 0 3 1;
#X connect 11 0 0 1;
#X connect 12 0 11 0;
#X connect 12 0 10 0;
#X connect 12 0 9 0;
