#N canvas 1017 184 500 351 12;
#X obj 143 34 inlet length;
#X obj 234 34 inlet beats;
#X obj 318 35 inlet beats;
#X obj 27 37 inlet bang;
#X obj 27 62 t b b b, f 15;
#X obj 71 114 for 0 \$1;
#X obj 33 253 parallelize;
#X obj 64 155 eu \$1 \$2 \$3;
#X obj 33 278 outlet;
#X connect 0 0 5 2;
#X connect 0 0 7 1;
#X connect 1 0 7 2;
#X connect 2 0 7 3;
#X connect 3 0 4 0;
#X connect 4 0 6 0;
#X connect 4 1 5 0;
#X connect 4 2 6 2;
#X connect 5 0 7 0;
#X connect 6 0 8 0;
#X connect 7 0 6 1;
