#N canvas 498 279 1313 865 12;
#X obj 163 39 r~ \$1-out\$2;
#X obj 32 67 vsl 32 88 0 1 0 0 \$0-amp \$0-amp-set empty 0 -9 0 10
-228856 -66577 -1 6090 0;
#X obj 66 67 vsl 24 88 0 1 0 0 \$0-clip \$0-clip-set empty 0 -9 0 10
-261816 -86277 -1 3500 0;
#X obj 92 67 vsl 24 88 0 1 0 0 \$0-allpass_delay \$0-allpass_delay-set
empty 0 -9 0 10 -241664 -13330 -1 4900 0;
#X obj 35 48 hsl 79 15 0 1 0 0 \$0-pan \$0-pan-set empty -2 -8 0 10
-228856 -66577 -1 3600 0;
#X obj 35 160 hsl 79 15 0 1 0 0 \$0-allpass_gain \$0-allpass_gain-set
empty -2 -8 0 10 -249856 -16662 -1 5800 0;
#X obj 369 30 r \$0-clip;
#X obj 369 55 *;
#X obj 369 105 + 1;
#X obj 368 130 pack 0 30;
#X obj 368 155 line~;
#X obj 368 180 s~ \$0-CLIP;
#X obj 449 28 r \$0-amp;
#X obj 449 53 *;
#X obj 449 78 pack 0 30;
#X obj 449 103 line~;
#X obj 449 128 s~ \$0-AMP;
#N canvas 0 66 852 803 p~ 0;
#X obj 29 36 inlet~ signal;
#X obj 280 36 inlet control;
#X obj 29 341 *~;
#X obj 280 61 sig~;
#X obj 280 86 lop~ 1;
#X obj 180 181 *~ 0.25;
#X obj 180 206 -~ 0.25;
#X obj 180 285 cos~;
#X obj 165 341 *~;
#X obj 44 260 -~ 0.25;
#X obj 44 285 cos~;
#X obj 29 376 outlet~ right;
#X obj 165 376 outlet~ left;
#X obj 181 37 inlet~;
#X connect 0 0 2 0;
#X connect 0 0 8 0;
#X connect 1 0 3 0;
#X connect 2 0 11 0;
#X connect 3 0 4 0;
#X connect 4 0 5 0;
#X connect 5 0 6 0;
#X connect 6 0 7 0;
#X connect 6 0 9 0;
#X connect 7 0 8 1;
#X connect 8 0 12 0;
#X connect 9 0 10 0;
#X connect 10 0 2 1;
#X connect 13 0 5 0;
#X restore 170 446 pd p~;
#X obj 165 215 *~;
#X obj 165 240 *~;
#X obj 194 215 r~ \$0-CLIP;
#X obj 195 239 r~ \$0-AMP;
#X obj 526 23 r \$0-allpass_delay;
#X obj 526 48 * 100;
#X obj 526 73 pack 0 30;
#X obj 526 98 line~;
#X obj 526 123 s~ \$0-ALLPASS_DELAY;
#X msg 25 2 size 24 88;
#X obj 168 359 cyclone/allpass~ 100 10 0.7;
#X obj 672 23 r \$0-allpass_gain;
#X obj 672 47 * 2;
#X obj 672 71 - 1;
#X obj 672 95 pack 0 30;
#X obj 672 119 line~;
#X obj 672 143 s~ \$0-ALLPASS_GAIN;
#X obj 174 265 r~ \$0-ALLPASS_DELAY;
#X obj 217 292 r~ \$0-ALLPASS_GAIN;
#X obj 212 405 r \$0-pan;
#X obj 148 505 throw~ \$1-outLEFT;
#X obj 273 505 throw~ \$1-outRIGHT;
#X obj 369 80 * 7;
#X obj 624 686 f \$0;
#X obj 695 549 r \$1-init;
#X msg 624 711 \; \$1-clip-set 0 \; \$1-amp-set 0.7 \; \$1-allpass_delay-set
0.1 \; \$1-allpass_gain-set 0.5 \; \$1-pan-set 0.5 \;;
#X obj 576 578 bng 15 250 50 0 empty empty empty 17 7 0 10 -262144
-1 -1;
#X obj 533 624 del 100;
#X obj 544 534 loadbang;
#X obj 846 427 pack 0 0 0 0 0 0;
#X obj 822 331 f \$0;
#X obj 866 34 r \$1-msg;
#X obj 866 59 route mixer;
#X obj 866 84 route \$2;
#X obj 866 109 route clip amp allpass-gain allpass-delay pan;
#X obj 866 140 t b f;
#X obj 929 140 t b f;
#X obj 992 140 t b f;
#X obj 1055 140 t b f;
#X obj 1115 140 t b f;
#X msg 844 459 \; \$1-clip-set \$2 \; \$1-amp-set \$3 \; \$1-allpass_delay-set
\$5 \; \$1-allpass_gain-set \$4 \; \$1-pan-set \$6 \;;
#X connect 0 0 18 0;
#X connect 6 0 7 0;
#X connect 6 0 7 1;
#X connect 7 0 40 0;
#X connect 8 0 9 0;
#X connect 9 0 10 0;
#X connect 10 0 11 0;
#X connect 12 0 13 0;
#X connect 12 0 13 1;
#X connect 13 0 14 0;
#X connect 14 0 15 0;
#X connect 15 0 16 0;
#X connect 17 0 38 0;
#X connect 17 1 39 0;
#X connect 18 0 19 0;
#X connect 19 0 28 0;
#X connect 20 0 18 1;
#X connect 21 0 19 1;
#X connect 22 0 23 0;
#X connect 23 0 24 0;
#X connect 24 0 25 0;
#X connect 25 0 26 0;
#X connect 27 0 2 0;
#X connect 27 0 3 0;
#X connect 28 0 17 0;
#X connect 29 0 30 0;
#X connect 30 0 31 0;
#X connect 31 0 32 0;
#X connect 32 0 33 0;
#X connect 33 0 34 0;
#X connect 35 0 28 1;
#X connect 36 0 28 2;
#X connect 37 0 17 2;
#X connect 40 0 8 0;
#X connect 41 0 43 0;
#X connect 42 0 44 0;
#X connect 44 0 41 0;
#X connect 44 0 45 0;
#X connect 45 0 41 0;
#X connect 46 0 44 0;
#X connect 47 0 58 0;
#X connect 48 0 47 0;
#X connect 49 0 50 0;
#X connect 50 0 51 0;
#X connect 51 0 52 0;
#X connect 52 0 53 0;
#X connect 52 1 54 0;
#X connect 52 2 55 0;
#X connect 52 3 56 0;
#X connect 52 4 57 0;
#X connect 53 0 48 0;
#X connect 53 1 47 1;
#X connect 54 0 48 0;
#X connect 54 1 47 2;
#X connect 55 0 48 0;
#X connect 55 1 47 3;
#X connect 56 0 48 0;
#X connect 56 1 47 4;
#X connect 57 0 48 0;
#X connect 57 1 47 5;
#X coords 0 -1 1 1 88 147 1 30 30;
