#N canvas 1263 173 865 572 12;
#X obj 98 34 r \$1-\$2;
#X obj 98 59 f;
#X obj 98 84 + 1;
#X obj 98 109 % 2;
#X obj 98 134 s \$1-\$3-set;
#X obj 156 58 r \$1-\$3;
#X obj 280 45 r \$1-\$3;
#X obj 280 70 sel 0 1;
#X obj 255 178 s \$1-\$2-set;
#X obj 122 280 r \$1-mod\$5;
#X obj 114 379 spigot;
#X obj 137 338 r \$1-\$3;
#X obj 114 404 s \$1-\$4;
#X msg 255 108 color #c0c0c0 #dcdcdc #fcfcfc, f 8;
#X msg 338 111 color #c0c0c0 #dcdcdc #deff9c, f 8;
#X connect 0 0 1 0;
#X connect 1 0 2 0;
#X connect 2 0 3 0;
#X connect 3 0 4 0;
#X connect 5 0 1 1;
#X connect 6 0 7 0;
#X connect 7 0 13 0;
#X connect 7 1 14 0;
#X connect 9 0 10 0;
#X connect 10 0 12 0;
#X connect 11 0 10 1;
#X connect 13 0 8 0;
#X connect 14 0 8 0;
