#N canvas 598 486 350 589 12;
#X obj 61 16 inlet;
#X obj 61 111 route list mono poly, f 21;
#X obj 61 226 poly \$1 1;
#X obj 61 316 pack 0 0 0;
#X obj 61 451 spigot;
#X obj 167 451 spigot;
#X obj 165 321 unpack 0 0;
#X msg 167 393 all \$2 \$3;
#X obj 61 516 outlet;
#X obj 110 15 loadbang;
#X msg 90 70 mono;
#X obj 61 186 makenote;
#X obj 61 291 - 1;
#X msg 165 296 0 1;
#X msg 215 296 1 0;
#X connect 0 0 1 0;
#X connect 1 0 11 0;
#X connect 1 1 13 0;
#X connect 1 2 14 0;
#X connect 2 0 12 0;
#X connect 2 1 3 1;
#X connect 2 2 3 2;
#X connect 3 0 4 0;
#X connect 3 0 7 0;
#X connect 4 0 8 0;
#X connect 5 0 8 0;
#X connect 6 0 4 1;
#X connect 6 1 5 1;
#X connect 7 0 5 0;
#X connect 9 0 10 0;
#X connect 10 0 1 0;
#X connect 11 0 2 0;
#X connect 11 1 2 1;
#X connect 12 0 3 0;
#X connect 13 0 6 0;
#X connect 14 0 6 0;
