#N canvas 688 340 1173 740 12;
#X obj 22 24 vsl 12 61 0 1 0 0 \$0-value \$0-value-set empty 0 -9 0
10 -199729 -262144 -212212 5000 0;
#N canvas 0 66 646 339 colors 0;
#X obj 84 42 loadbang;
#X obj 84 67 f \$4;
#X obj 84 92 sel 0 1 2 3 4 5 6 7;
#X msg 271 162 color #d5d5d5 #ffffff #cdcdcd, f 7;
#X obj 64 259 s \$0-value-set;
#X msg 61 162 color #c0c0c0 #ffffff #cdcdcd, f 7;
#X msg 131 162 color #c7c7c7 #ffffff #cdcdcd, f 7;
#X msg 201 162 color #d0d0d0 #ffffff #cdcdcd, f 7;
#X msg 341 162 color #dddddd #b0b0b0 #cdcdcd, f 7;
#X msg 411 162 color #e0e0e0 #b0b0b0 #cdcdcd, f 7;
#X msg 481 162 color #e6e6e6 #b0b0b0 #cdcdcd, f 7;
#X msg 551 162 color #efefef #b0b0b0 #cdcdcd, f 7;
#X connect 0 0 1 0;
#X connect 1 0 2 0;
#X connect 2 0 5 0;
#X connect 2 1 6 0;
#X connect 2 2 7 0;
#X connect 2 3 3 0;
#X connect 2 4 8 0;
#X connect 2 5 9 0;
#X connect 2 6 10 0;
#X connect 2 7 11 0;
#X connect 3 0 4 0;
#X connect 5 0 4 0;
#X connect 6 0 4 0;
#X connect 7 0 4 0;
#X connect 8 0 4 0;
#X connect 9 0 4 0;
#X connect 10 0 4 0;
#X connect 11 0 4 0;
#X restore 586 46 pd colors;
#X obj 586 69 r \$0-bang;
#X msg 586 91 0;
#X obj 586 113 s \$0-value-set;
#X obj 115 272 tabwrite \$2-mod_table\$3;
#X obj 361 14 r \$2-preset_bank;
#X obj 373 126 * 8;
#X obj 373 151 + \$4;
#X obj 373 176 tabread \$2-mod_table\$3;
#X obj 221 366 r \$2-preset_bank;
#X obj 204 430 f;
#X obj 204 455 * 8;
#X obj 204 480 + \$4;
#X obj 203 506 tabread \$2-mod_table\$3;
#X obj 203 531 s \$0-value-set;
#X obj 152 324 r \$2-read_mod_table;
#X obj 168 207 * 8;
#X obj 168 232 + \$4;
#X obj 107 30 r \$0-value;
#X obj 178 173 f;
#X obj 198 145 r \$2-preset_bank;
#X floatatom 12 188 5 0 0 0 - - -;
#X obj 107 119 t f b, f 8;
#X obj 359 262 s \$0-value-set;
#X floatatom 202 121 5 0 0 0 - - -;
#X msg 373 201 set \$1;
#X connect 2 0 3 0;
#X connect 3 0 4 0;
#X connect 6 0 7 0;
#X connect 7 0 8 0;
#X connect 8 0 9 0;
#X connect 9 0 26 0;
#X connect 10 0 11 1;
#X connect 11 0 12 0;
#X connect 12 0 13 0;
#X connect 14 0 15 0;
#X connect 16 0 11 0;
#X connect 17 0 18 0;
#X connect 18 0 5 1;
#X connect 19 0 22 0;
#X connect 19 0 23 0;
#X connect 20 0 17 0;
#X connect 21 0 20 1;
#X connect 23 0 5 0;
#X connect 23 1 20 0;
#X connect 26 0 24 0;
#X coords 0 -1 1 1 16 70 2 20 20;
