#N canvas 1142 199 778 712 12;
#X declare -path ../../lib;
#X msg 264 30 x8_bit \$0 \$1 \$2 0;
#X msg 493 78 0 1 2 3 4 5 6 7 6 5 4 3 2 1;
#X obj 493 103 list prepend 0;
#X obj 493 128 s \$0-long;
#N canvas 0 50 450 250 (subpatch) 0;
#X array \$0-long 14 float 3;
#A 0 0 1 2 3 4 5 6 7 6 5 4 3 2 1;
#X coords 0 7 14 0 60 30 1 0 0;
#X restore 347 80 graph;
#X obj 142 21 bng 25 250 50 0 \$0-direction_button \$0-direction_button-set
empty 3 13 0 16 -212212 -228856 -262139;
#X floatatom 361 118 5 0 0 0 - #1-step#2-set #1-step#2;
#X obj 519 31 loadbang;
#N canvas 0 105 450 300 style 0;
#X obj 74 22 r \$1-step\$2;
#X obj 74 47 sel 0 1 2 3 4;
#X msg 33 208 label;
#X msg 51 181 label up;
#X msg 63 150 label dn;
#X msg 113 116 label ud;
#X msg 128 87 label du;
#X obj 33 233 s \$0-direction_button-set;
#X connect 0 0 1 0;
#X connect 1 0 2 0;
#X connect 1 1 3 0;
#X connect 1 2 4 0;
#X connect 1 3 5 0;
#X connect 1 4 6 0;
#X connect 2 0 7 0;
#X connect 3 0 7 0;
#X connect 4 0 7 0;
#X connect 5 0 7 0;
#X connect 6 0 7 0;
#X restore 271 93 pd style;
#X obj 12 21 x8_bit \$0 \$1 \$2 0 \$3;
#X obj 28 21 x8_bit \$0 \$1 \$2 1 \$3;
#X obj 44 21 x8_bit \$0 \$1 \$2 2 \$3;
#X obj 60 21 x8_bit \$0 \$1 \$2 3 \$3;
#X obj 76 21 x8_bit \$0 \$1 \$2 4 \$3;
#X obj 92 21 x8_bit \$0 \$1 \$2 5 \$3;
#X obj 108 21 x8_bit \$0 \$1 \$2 6 \$3;
#X obj 124 21 x8_bit \$0 \$1 \$2 7 \$3;
#N canvas 188 317 662 366 button 0;
#X obj 30 48 r \$0-direction_button;
#X obj 30 73 f;
#X obj 30 98 + 1;
#X obj 30 123 % 5;
#X obj 32 146 s \$1-step\$2-set;
#X connect 0 0 1 0;
#X connect 1 0 2 0;
#X connect 2 0 3 0;
#X connect 3 0 1 1;
#X connect 3 0 4 0;
#X restore 271 69 pd button;
#X obj 272 204 array define -k -yrange 0 1 \$1-mod_table\$2 72;
#A 0 0.327586 0.142857 0.285714 0.428571 0.571429 0.714286 0.857143
1 0 0.142857 0.285714 0.428571 0.571429 0.714286 0.857143 1 0 0.142857
0.285714 0.428571 0.571429 0.714286 0.857143 1 0 0.142857 0.285714
0.428571 0.571429 0.714286 0.857143 1 0 0.142857 0.285714 0.428571
0.571429 0.714286 0.857143 1 0 0.142857 0.285714 0.428571 0.571429
0.714286 0.857143 1 0 0.142857 0.285714 0.428571 0.571429 0.714286
0.857143 1 0 0.142857 0.285714 0.428571 0.571429 0.714286 0.857143
1 0 0.142857 0.285714 0.428571 0.571429 0.714286 0.857143 1;
#X obj 142 50 vsl 25 36 0 1 0 0 \$1-slider\$2 \$1-slider\$2-set \$2
-127 -15 1 16 -245500 -191407 -262144 0 0;
#X obj 273 180 declare -path ../../lib;
#N canvas 850 449 450 300 init 1;
#X obj 41 26 bng 15 250 50 0 empty empty empty 17 7 0 10 -262144 -1
-1;
#X obj 43 124 for 0 8;
#X obj 43 149 t f f;
#X obj 43 174 / 7;
#X obj 43 199 tabwrite \$1-mod_table\$2;
#X obj 98 62 r \$1-init;
#X obj 98 87 t b b;
#X obj 98 112 s \$1-read_mod_table;
#X obj 193 57 bng 15 250 50 0 empty empty empty 17 7 0 10 -262144 -1
-1;
#X connect 0 0 6 0;
#X connect 1 0 2 0;
#X connect 2 0 3 0;
#X connect 2 1 4 1;
#X connect 3 0 4 0;
#X connect 5 0 6 0;
#X connect 6 0 7 0;
#X connect 6 1 1 0;
#X connect 8 0 7 0;
#X restore 271 115 pd init;
#N canvas 337 435 354 443 sequencer 0;
#N canvas 559 59 1361 1133 read_table 0;
#X obj 165 60 inlet clock;
#X obj 172 163 f;
#X obj 172 188 + 1;
#X obj 172 213 % 8;
#X obj 200 240 expr 7 - $f1;
#X obj 329 139 f;
#X obj 329 164 + 1;
#X obj 329 189 % 14;
#X obj 300 242 tabread \$0-long;
#X obj 415 241 expr 7 - $f1;
#X obj 98 240 r \$1-step\$2;
#X obj 133 306 sel 0 1 2 3 4, f 68;
#X msg 133 341 0 0 0 0;
#X msg 227 340 1 0 0 0;
#X msg 323 341 0 1 0 0;
#X msg 417 340 0 0 1 0;
#X msg 511 340 0 0 0 1;
#X obj 134 389 unpack 0 0 0 0, f 64;
#X obj 98 469 spigot;
#X obj 187 472 spigot;
#X obj 322 484 spigot;
#X obj 420 466 spigot, f 7;
#X obj 176 553 r \$1-preset_bank;
#X obj 176 578 * 8;
#X obj 129 553 t f b;
#X obj 151 625 f;
#X obj 128 648 +;
#X obj 133 782 outlet;
#X obj 128 673 tabread \$1-mod_table\$2;
#X connect 0 0 1 0;
#X connect 0 0 5 0;
#X connect 1 0 2 0;
#X connect 2 0 3 0;
#X connect 3 0 1 1;
#X connect 3 0 4 0;
#X connect 3 0 18 0;
#X connect 4 0 19 0;
#X connect 5 0 6 0;
#X connect 6 0 7 0;
#X connect 7 0 5 1;
#X connect 7 0 8 0;
#X connect 8 0 9 0;
#X connect 8 0 20 0;
#X connect 9 0 21 0;
#X connect 10 0 11 0;
#X connect 11 0 12 0;
#X connect 11 1 13 0;
#X connect 11 2 14 0;
#X connect 11 3 15 0;
#X connect 11 4 16 0;
#X connect 12 0 17 0;
#X connect 13 0 17 0;
#X connect 14 0 17 0;
#X connect 15 0 17 0;
#X connect 16 0 17 0;
#X connect 17 0 18 1;
#X connect 17 1 19 1;
#X connect 17 2 20 1;
#X connect 17 3 21 1;
#X connect 18 0 24 0;
#X connect 19 0 24 0;
#X connect 20 0 24 0;
#X connect 21 0 24 0;
#X connect 22 0 23 0;
#X connect 23 0 25 1;
#X connect 24 0 26 0;
#X connect 24 1 25 0;
#X connect 25 0 26 1;
#X connect 26 0 28 0;
#X connect 28 0 27 0;
#X restore 71 66 pd read_table;
#X obj 150 149 *;
#X obj 150 174 *;
#X obj 150 199 * 4800;
#X obj 71 91 t f b;
#X obj 151 248 f;
#X obj 99 276 pack 0 0;
#X obj 99 301 line;
#X obj 150 124 r \$1-slider\$2;
#X obj 92 344 s \$1-mod\$2;
#X obj 183 41 r \$1-clock;
#X connect 0 0 4 0;
#X connect 1 0 2 0;
#X connect 2 0 3 0;
#X connect 3 0 5 1;
#X connect 4 0 6 0;
#X connect 4 1 5 0;
#X connect 5 0 6 1;
#X connect 6 0 7 0;
#X connect 7 0 9 0;
#X connect 8 0 1 0;
#X connect 8 0 1 1;
#X connect 8 0 2 1;
#X connect 10 0 0 0;
#X restore 271 137 pd sequencer;
#N canvas 68 328 338 315 msg 0;
#X obj 57 27 r \$1-msg;
#X obj 57 52 route x8_step\$2;
#X obj 57 77 list split 8;
#X obj 52 232 array set \$1-mod_table\$2;
#X obj 180 54 bng 15 250 50 0 empty empty empty 17 7 0 10 -262144 -1
-1;
#X obj 57 102 t b b a;
#X obj 118 152 s \$1-preset_bank-set;
#X obj 57 127 s \$1-read_mod_table;
#X connect 0 0 1 0;
#X connect 1 0 2 0;
#X connect 2 0 5 0;
#X connect 2 1 3 1;
#X connect 4 0 6 0;
#X connect 4 0 7 0;
#X connect 5 0 7 0;
#X connect 5 1 6 0;
#X connect 5 2 3 0;
#X restore 182 303 pd msg;
#X connect 1 0 2 0;
#X connect 2 0 3 0;
#X connect 7 0 1 0;
#X coords 0 -1 1 1 159 72 2 10 19;
