#N canvas 791 379 747 375 12;
#X obj 12 14 vsl 12 97 0 1 0 0 \$0-value \$0-value-set empty 0 -9 0
10 -228856 -262144 -228856 1371 0;
#X obj 95 19 r \$0-value;
#X obj 95 149 tabwrite \$2-cart;
#N canvas 61 158 726 505 colorscheme 0;
#X obj 250 36 r \$2-select_toggle;
#X msg 422 213 color #dcdcdc #bbbbbb #dcdcdc, f 9;
#X msg 512 213 color #dcdcdc #e6bbbb #dcdcdc, f 9;
#X obj 246 315 s \$0-value-set;
#X obj 250 61 sel 0 1 2 3;
#X msg 332 213 color #dcdcdc #e9fcb0 #dcdcdc, f 9;
#X msg 242 213 color #dcdcdc #ffffff #dcdcdc, f 9;
#X connect 0 0 4 0;
#X connect 1 0 3 0;
#X connect 2 0 3 0;
#X connect 4 0 6 0;
#X connect 4 1 5 0;
#X connect 4 2 1 0;
#X connect 4 3 2 0;
#X connect 5 0 3 0;
#X connect 6 0 3 0;
#X restore 94 178 pd colorscheme;
#X obj 173 40 r \$2-address;
#X obj 163 91 f;
#X obj 163 116 + \$3;
#X obj 95 60 t f b, f 6;
#X obj 550 34 r \$2-address;
#X obj 550 59 + \$3;
#X obj 550 84 tabread \$2-cart;
#X msg 550 109 set \$1;
#X obj 550 134 s \$0-value-set;
#X obj 301 156 r \$0-value;
#X obj 288 19 r \$2-write_next;
#X obj 288 204 f;
#X obj 364 204 f;
#X obj 288 249 tabwrite \$2-cart;
#X obj 398 131 r \$2-address;
#X obj 398 156 + 32;
#X obj 398 181 % 288;
#X obj 398 206 % 3;
#X obj 288 44 t b b, f 8;
#X connect 1 0 7 0;
#X connect 4 0 5 1;
#X connect 5 0 6 0;
#X connect 6 0 2 1;
#X connect 7 0 2 0;
#X connect 7 1 5 0;
#X connect 8 0 9 0;
#X connect 9 0 10 0;
#X connect 10 0 11 0;
#X connect 11 0 12 0;
#X connect 13 0 15 1;
#X connect 14 0 22 0;
#X connect 15 0 17 0;
#X connect 16 0 17 1;
#X connect 18 0 19 0;
#X connect 19 0 20 0;
#X connect 20 0 21 0;
#X connect 21 0 16 1;
#X connect 22 0 15 0;
#X connect 22 1 16 0;
#X coords 0 -1 1 1 16 106 2 10 10;
