#N canvas 649 135 1073 748 12;
#X obj 182 40 r \$1-msg;
#X obj 182 65 route \$2;
#X obj 182 90 route mod_cart;
#X obj 23 20 hsl 92 17 0 1 0 0 \$0-reduction \$0-reduction-set \$3_\$4
-2 -8 1 12 -228856 -129006 -1 9100 0;
#X obj 42 39 hsl 73 17 0 1 0 0 \$0-offset \$0-offset-set empty -2 -8
0 10 -228856 -129632 -1 3600 0;
#X obj 255 215 r \$0-reduction;
#X obj 239 242 f;
#X obj 227 281 r \$0-offset;
#X obj 207 417 f;
#X obj 181 504 list prepend \$4 \$3;
#X obj 181 529 s \$1-msg;
#X obj 182 195 t f b b;
#X obj 182 260 *;
#X obj 182 445 +;
#X obj 182 470 clip 0 1;
#X obj 388 40 loadbang;
#X msg 384 94 1;
#X obj 384 159 s \$0-reduction-set;
#X msg 422 96 0.5;
#X obj 422 121 s \$0-offset-set;
#X obj 227 306 - 0.5;
#X floatatom 227 331 5 0 0 0 - - -;
#X obj 20 39 bng 17 250 50 0 \$0-reset \$0-reset-set empty 17 7 0 10
-262144 -1 -1;
#X obj 444 66 r \$0-reset;
#X floatatom 182 115 5 0 0 0 - - -;
#X connect 0 0 1 0;
#X connect 1 0 2 0;
#X connect 2 0 11 0;
#X connect 2 0 24 0;
#X connect 5 0 6 1;
#X connect 6 0 12 1;
#X connect 7 0 20 0;
#X connect 8 0 13 1;
#X connect 9 0 10 0;
#X connect 11 0 12 0;
#X connect 11 1 8 0;
#X connect 11 2 6 0;
#X connect 12 0 13 0;
#X connect 13 0 14 0;
#X connect 14 0 9 0;
#X connect 15 0 16 0;
#X connect 15 0 18 0;
#X connect 16 0 17 0;
#X connect 18 0 19 0;
#X connect 20 0 21 0;
#X connect 21 0 8 1;
#X connect 23 0 16 0;
#X connect 23 0 18 0;
#X coords 0 -1 1 1 97 36 2 20 20;
