#N canvas 630 171 948 899 12;
#N canvas 623 546 567 440 direction 0;
#X obj 38 129 f;
#X obj 38 154 + 1;
#X obj 38 179 % 8;
#X obj 140 279 expr 7 - $f1;
#X obj 258 129 f;
#X obj 258 154 + 1;
#X obj 258 179 % 14;
#X obj 258 204 tabread \$1-long;
#X obj 368 279 expr 7 - $f1;
#X obj 38 304 s \$0-up;
#X obj 140 304 s \$0-dn;
#X obj 258 303 s \$0-ud;
#X obj 368 304 s \$0-du;
#X obj 153 45 r \$1-clock;
#X obj 62 62 r \$3-bang\$2;
#X connect 0 0 1 0;
#X connect 1 0 2 0;
#X connect 2 0 0 1;
#X connect 2 0 3 0;
#X connect 2 0 9 0;
#X connect 3 0 10 0;
#X connect 4 0 5 0;
#X connect 5 0 6 0;
#X connect 6 0 4 1;
#X connect 6 0 7 0;
#X connect 7 0 8 0;
#X connect 7 0 11 0;
#X connect 8 0 12 0;
#X connect 13 0 0 0;
#X connect 13 0 4 0;
#X connect 14 0 0 0;
#X connect 14 0 4 0;
#X restore 30 37 pd direction;
#X obj 250 60 r \$1-direction\$2;
#X obj 250 135 == 1;
#X obj 290 135 == 2;
#X obj 330 135 == 3;
#X obj 370 135 == 4;
#X obj 205 217 r \$0-up;
#X obj 275 217 r \$0-dn;
#X obj 345 217 r \$0-ud;
#X obj 415 217 r \$0-du;
#X obj 205 242 spigot;
#X obj 275 242 spigot;
#X obj 345 242 spigot;
#X obj 415 242 spigot;
#X obj 283 339 r \$1-preset_bank;
#X obj 283 366 * 32;
#X obj 204 345 t f b b;
#X obj 227 408 f \$2;
#X obj 227 433 * 8;
#X obj 265 400 f;
#X obj 227 458 +;
#X obj 206 495 +;
#X obj 206 520 tabread \$1-cart;
#X obj 202 783 s \$1-mod_cart\$2;
#X obj 327 519 r \$1-smooth\$2;
#X obj 206 685 pack 0 0;
#X obj 206 710 line;
#X obj 327 594 * 4800;
#X obj 327 544 *;
#X obj 327 569 *;
#X floatatom 206 735 5 0 0 0 - - -;
#X connect 1 0 2 0;
#X connect 1 0 3 0;
#X connect 1 0 5 0;
#X connect 1 0 4 0;
#X connect 2 0 10 1;
#X connect 3 0 11 1;
#X connect 4 0 12 1;
#X connect 5 0 13 1;
#X connect 6 0 10 0;
#X connect 7 0 11 0;
#X connect 8 0 12 0;
#X connect 9 0 13 0;
#X connect 10 0 16 0;
#X connect 11 0 16 0;
#X connect 12 0 16 0;
#X connect 13 0 16 0;
#X connect 14 0 15 0;
#X connect 15 0 19 1;
#X connect 16 0 21 0;
#X connect 16 1 17 0;
#X connect 16 2 19 0;
#X connect 17 0 18 0;
#X connect 18 0 20 0;
#X connect 19 0 20 1;
#X connect 20 0 21 1;
#X connect 21 0 22 0;
#X connect 22 0 25 0;
#X connect 24 0 28 1;
#X connect 24 0 28 0;
#X connect 24 0 29 1;
#X connect 25 0 26 0;
#X connect 26 0 23 0;
#X connect 26 0 30 0;
#X connect 27 0 25 1;
#X connect 28 0 29 0;
#X connect 29 0 27 0;
