#N canvas 85 496 733 708 12;
#X obj 64 54 r \$1-\$2;
#X obj 64 179 t f b;
#X obj 81 219 r \$1-preset_bank;
#X obj 83 267 f;
#X obj 83 292 * 8;
#X obj 83 317 + 288;
#X obj 57 383 tabwrite \$1-cart;
#X obj 264 190 * 8;
#X obj 264 215 + 288;
#X obj 264 265 tabread \$1-cart;
#X obj 264 290 s \$1-\$2-set;
#X obj 264 75 r \$1-preset_bank;
#X obj 264 100 t b f b;
#X obj 64 149 spigot;
#X msg 326 134 0;
#X msg 235 133 1;
#X obj 440 48 loadbang;
#X obj 83 342 + \$4;
#X obj 264 240 + \$4;
#X obj 448 113 f \$3;
#X obj 448 138 s \$1-\$2-set;
#X connect 0 0 13 0;
#X connect 1 0 6 0;
#X connect 1 1 3 0;
#X connect 2 0 3 1;
#X connect 3 0 4 0;
#X connect 4 0 5 0;
#X connect 5 0 17 0;
#X connect 7 0 8 0;
#X connect 8 0 18 0;
#X connect 9 0 10 0;
#X connect 11 0 12 0;
#X connect 12 0 15 0;
#X connect 12 1 7 0;
#X connect 12 2 14 0;
#X connect 13 0 1 0;
#X connect 14 0 13 1;
#X connect 15 0 13 1;
#X connect 16 0 15 0;
#X connect 16 0 19 0;
#X connect 17 0 6 1;
#X connect 18 0 9 0;
#X connect 19 0 20 0;
