#N canvas 491 274 733 708 12;
#X obj 374 54 r \$1-\$2;
#X obj 374 369 t f b;
#X obj 391 409 r \$1-preset_bank;
#X obj 393 457 f;
#X obj 393 482 * 8;
#X obj 393 507 + 288;
#X obj 367 573 tabwrite \$1-cart;
#X obj 574 460 * 8;
#X obj 574 485 + 288;
#X obj 574 535 tabread \$1-cart;
#X obj 574 560 s \$1-\$2-set;
#X obj 446 51 r \$1-preset_bank;
#X obj 446 76 t b f b;
#X obj 374 339 spigot;
#X msg 508 300 0;
#X msg 417 299 1;
#X obj 574 49 loadbang;
#X obj 393 532 + \$4;
#X obj 574 510 + \$4;
#X obj 582 114 f \$3;
#X obj 582 139 s \$1-\$2-set;
#X obj 116 395 f;
#X obj 257 111 r \$1-preset_bank;
#X obj 229 206 f;
#X obj 229 231 * 8;
#X obj 229 256 + 288;
#X obj 229 281 + \$4;
#X obj 257 136 + 1;
#X obj 257 161 % 9;
#X obj 118 79 r \$1-write_next;
#X obj 118 104 t b b;
#X obj 116 420 tabwrite \$1-cart;
#X connect 0 0 13 0;
#X connect 0 0 21 1;
#X connect 1 0 6 0;
#X connect 1 1 3 0;
#X connect 2 0 3 1;
#X connect 3 0 4 0;
#X connect 4 0 5 0;
#X connect 5 0 17 0;
#X connect 7 0 8 0;
#X connect 8 0 18 0;
#X connect 9 0 10 0;
#X connect 11 0 12 0;
#X connect 12 0 15 0;
#X connect 12 1 7 0;
#X connect 12 2 14 0;
#X connect 13 0 1 0;
#X connect 14 0 13 1;
#X connect 15 0 13 1;
#X connect 16 0 15 0;
#X connect 16 0 19 0;
#X connect 17 0 6 1;
#X connect 18 0 9 0;
#X connect 19 0 20 0;
#X connect 21 0 31 0;
#X connect 22 0 27 0;
#X connect 23 0 24 0;
#X connect 24 0 25 0;
#X connect 25 0 26 0;
#X connect 26 0 31 1;
#X connect 27 0 28 0;
#X connect 28 0 23 1;
#X connect 29 0 30 0;
#X connect 30 0 21 0;
#X connect 30 1 23 0;
