#N canvas 437 143 1036 818 12;
#X obj 497 344 r \$1-preset_bank;
#X obj 497 369 * 24;
#X obj 455 445 f;
#X obj 497 394 + 360;
#X obj 388 86 r \$1-\$2;
#X obj 490 84 r \$1-preset_bank;
#X obj 490 109 * 24;
#X obj 490 134 + 360;
#X obj 490 159 + \$4;
#X obj 490 184 tabread \$1-cart;
#X obj 490 209 t b f b;
#X msg 606 260 0;
#X msg 424 259 1;
#X obj 388 361 spigot;
#X obj 488 278 s \$1-\$2-set;
#X obj 497 419 + \$4;
#X obj 391 395 t f b;
#X obj 374 494 tabwrite \$1-cart;
#X obj 127 114 r \$1-write_next;
#X obj 164 306 f;
#X obj 267 294 r \$1-preset_bank;
#X obj 225 445 f;
#X obj 161 335 t f b;
#X obj 144 494 tabwrite \$1-cart;
#X obj 267 369 * 24;
#X obj 267 394 + 360;
#X obj 267 419 + \$4;
#X obj 267 319 + 1;
#X obj 267 344 % 9;
#X connect 0 0 1 0;
#X connect 1 0 3 0;
#X connect 2 0 17 1;
#X connect 3 0 15 0;
#X connect 4 0 13 0;
#X connect 4 0 19 1;
#X connect 5 0 6 0;
#X connect 6 0 7 0;
#X connect 7 0 8 0;
#X connect 8 0 9 0;
#X connect 9 0 10 0;
#X connect 10 0 12 0;
#X connect 10 1 14 0;
#X connect 10 2 11 0;
#X connect 11 0 13 1;
#X connect 12 0 13 1;
#X connect 13 0 16 0;
#X connect 15 0 2 1;
#X connect 16 0 17 0;
#X connect 16 1 2 0;
#X connect 18 0 19 0;
#X connect 19 0 22 0;
#X connect 20 0 27 0;
#X connect 21 0 23 1;
#X connect 22 0 23 0;
#X connect 22 1 21 0;
#X connect 24 0 25 0;
#X connect 25 0 26 0;
#X connect 26 0 21 1;
#X connect 27 0 28 0;
#X connect 28 0 24 0;
