#N canvas 330 59 831 860 12;
#X obj 253 48 r \$1-mod_cart\$2;
#X obj 49 317 spigot;
#X obj 60 288 r \$1-mod_wf\$2;
#X obj 89 347 spigot;
#X obj 100 318 r \$1-mod_tf\$2;
#X obj 129 377 spigot;
#X obj 140 348 r \$1-mod_ra\$2;
#X obj 169 407 spigot;
#X obj 180 378 r \$1-mod_rb\$2;
#X obj 209 437 spigot;
#X obj 220 408 r \$1-mod_oc\$2;
#X obj 249 467 spigot;
#X obj 260 438 r \$1-mod_bc\$2;
#X obj 80 743 list trim;
#X obj 84 780 outlet;
#X obj 70 508 list prepend \$2 msg mod_wf;
#X obj 80 533 list prepend \$2 msg mod_tf;
#X obj 90 557 list prepend \$2 msg mod_ra;
#X obj 100 579 list prepend \$2 msg mod_rb;
#X obj 110 599 list prepend \$2 msg mod_oc;
#X obj 120 622 list prepend \$2 msg mod_bc;
#X msg 361 145 mod_cart \$1;
#X obj 361 170 list prepend msg \$2;
#X obj 361 195 list trim;
#X obj 361 220 s \$1-msg;
#X connect 0 0 1 0;
#X connect 0 0 3 0;
#X connect 0 0 9 0;
#X connect 0 0 7 0;
#X connect 0 0 5 0;
#X connect 0 0 11 0;
#X connect 0 0 21 0;
#X connect 1 0 15 0;
#X connect 2 0 1 1;
#X connect 3 0 16 0;
#X connect 4 0 3 1;
#X connect 5 0 17 0;
#X connect 6 0 5 1;
#X connect 7 0 18 0;
#X connect 8 0 7 1;
#X connect 9 0 19 0;
#X connect 10 0 9 1;
#X connect 11 0 20 0;
#X connect 12 0 11 1;
#X connect 13 0 14 0;
#X connect 15 0 13 0;
#X connect 16 0 13 0;
#X connect 17 0 13 0;
#X connect 18 0 13 0;
#X connect 19 0 13 0;
#X connect 20 0 13 0;
#X connect 21 0 22 0;
#X connect 22 0 23 0;
#X connect 23 0 24 0;
