#N canvas 846 329 1098 667 12;
#X declare -path ../objects;
#X declare -path ../../lib;
#X obj 101 106 bng 32 250 50 0 \$0-select_button \$0-select_button-set
empty 17 7 0 10 -262144 -228856 -228856;
#X floatatom 285 260 2 0 3 0 - #0-select_toggle-set #0-select_toggle
;
#X obj 32 72 3x3 \$0 preset_bank #efefef #7c7cd1;
#X obj 135 32 cartridge \$0;
#N canvas 1069 164 446 313 colorscheme 0;
#X msg 235 130 color #bbbbbb #dcdcdc #dcdcdc, f 9;
#X msg 325 130 color #e6bbbb #bbbbbb #dcdcdc, f 9;
#X obj 51 224 s \$0-select_button-set;
#X obj 166 65 r \$0-select_toggle;
#X obj 166 90 sel 0 1 2 3;
#X msg 155 130 color #e9fcb0 #dcdcdc #dcdcdc, f 9;
#X msg 65 130 color #ffffff #dcdcdc #dcdcdc, f 9;
#X connect 0 0 2 0;
#X connect 1 0 2 0;
#X connect 3 0 4 0;
#X connect 4 0 6 0;
#X connect 4 1 5 0;
#X connect 4 2 0 0;
#X connect 4 3 1 0;
#X connect 5 0 2 0;
#X connect 6 0 2 0;
#X restore 343 215 pd colorscheme;
#X floatatom 303 260 5 0 0 0 - #0-address-set #0-address;
#X obj 102 51 bng 32 250 50 0 \$0-button_direction \$0-button_direction-set
up 2 17 1 24 -162280 -228856 -262144;
#X obj 273 34 vsl 24 101 0 1 0 0 \$0-smooth \$0-smooth-set empty 0
-9 0 10 -228856 -262144 -1 4300 1;
#N canvas 1042 342 590 629 init 0;
#X obj 239 372 for 0 36;
#X obj 239 397 t b f, f 24;
#X msg 247 430 0 0.142857 0.285714 0.428571 0.571429 0.714286 0.857143
1, f 22;
#X obj 281 504 list prepend;
#X obj 281 536 s \$0-cart;
#X obj 427 433 * 8;
#X msg 324 345 0;
#X obj 325 370 s \$0-preset_bank-set;
#X obj 92 39 r \$0-init;
#X obj 192 184 s \$0-cart;
#X msg 192 114 read /home/mensch/puredata/0.beemo/mod_cartridge/presets/init
, f 25;
#X obj 92 64 t b b;
#X msg 12 150 0;
#X obj 12 185 s \$0-preset_bank-set;
#X connect 0 0 1 0;
#X connect 1 0 2 0;
#X connect 1 1 5 0;
#X connect 2 0 3 0;
#X connect 3 0 4 0;
#X connect 5 0 3 1;
#X connect 6 0 7 0;
#X connect 8 0 11 0;
#X connect 10 0 9 0;
#X connect 11 0 12 0;
#X connect 11 1 10 0;
#X connect 12 0 13 0;
#X restore 343 237 pd init;
#N canvas 821 405 539 505 address 0;
#X obj 70 208 f;
#X obj 111 283 f;
#X obj 70 233 t f b;
#X obj 70 338 +;
#X obj 111 308 * 32;
#X obj 70 258 * 8;
#X obj 70 363 s \$0-address-set;
#X obj 70 103 r \$0-select_toggle;
#X obj 104 137 r \$0-preset_bank;
#X msg 157 212 0;
#X obj 157 237 s \$0-select_toggle-set;
#X obj 104 162 t b f;
#X connect 0 0 2 0;
#X connect 1 0 4 0;
#X connect 2 0 5 0;
#X connect 2 1 1 0;
#X connect 3 0 6 0;
#X connect 4 0 3 1;
#X connect 5 0 3 0;
#X connect 7 0 0 0;
#X connect 8 0 11 0;
#X connect 9 0 10 0;
#X connect 11 0 9 0;
#X connect 11 1 1 1;
#X restore 343 259 pd address;
#N canvas 446 187 296 233 button 0;
#X obj 53 24 r \$0-select_button;
#X obj 53 49 f;
#X obj 53 74 + 1;
#X obj 53 124 s \$0-select_toggle-set;
#X obj 88 53 r \$0-select_toggle;
#X obj 53 99 % 4;
#X connect 0 0 1 0;
#X connect 1 0 2 0;
#X connect 2 0 5 0;
#X connect 4 0 1 1;
#X connect 5 0 3 0;
#X restore 343 281 pd button;
#X floatatom 172 172 2 0 3 0 - #0-direction0-set #0-direction0;
#N canvas 76 258 1221 556 direction 0;
#X obj 27 22 r \$0-button_direction;
#X obj 33 337 f;
#X obj 33 362 + 1;
#X obj 33 387 % 5;
#X obj 290 24 r \$0-select_toggle;
#X obj 290 89 == 0;
#X obj 330 89 == 1;
#X obj 370 89 == 2;
#X obj 410 89 == 3;
#X obj 65 338 r \$0-direction0;
#X obj 33 411 s \$0-direction0-set;
#X obj 193 337 f;
#X obj 193 362 + 1;
#X obj 193 387 % 5;
#X obj 343 337 f;
#X obj 343 362 + 1;
#X obj 343 387 % 5;
#X obj 503 337 f;
#X obj 503 362 + 1;
#X obj 503 387 % 5;
#X obj 225 338 r \$0-direction1;
#X obj 193 411 s \$0-direction1-set;
#X obj 375 338 r \$0-direction2;
#X obj 343 411 s \$0-direction2-set;
#X obj 535 338 r \$0-direction3;
#X obj 503 411 s \$0-direction3-set;
#X obj 33 297 spigot;
#X obj 192 297 spigot;
#X obj 342 297 spigot;
#X obj 502 297 spigot;
#X obj 700 24 r \$0-select_toggle;
#X obj 700 49 sel 0 1 2 3;
#X obj 692 129 f;
#X obj 812 129 f;
#X obj 932 129 f;
#X obj 1052 129 f;
#X obj 708 214 sel 0 1 2 3 4;
#X msg 714 289 label empty;
#X msg 814 289 label up;
#X msg 894 289 label dn;
#X msg 974 289 label ud;
#X msg 1054 289 label du;
#X obj 714 364 s \$0-button_direction-set;
#X obj 710 102 r \$0-direction0;
#X obj 830 102 r \$0-direction1;
#X obj 950 102 r \$0-direction2;
#X obj 1070 102 r \$0-direction3;
#X connect 0 0 26 0;
#X connect 0 0 27 0;
#X connect 0 0 29 0;
#X connect 0 0 28 0;
#X connect 1 0 2 0;
#X connect 2 0 3 0;
#X connect 3 0 10 0;
#X connect 4 0 5 0;
#X connect 4 0 6 0;
#X connect 4 0 8 0;
#X connect 4 0 7 0;
#X connect 5 0 26 1;
#X connect 6 0 27 1;
#X connect 7 0 28 1;
#X connect 8 0 29 1;
#X connect 9 0 1 1;
#X connect 11 0 12 0;
#X connect 12 0 13 0;
#X connect 13 0 21 0;
#X connect 14 0 15 0;
#X connect 15 0 16 0;
#X connect 16 0 23 0;
#X connect 17 0 18 0;
#X connect 18 0 19 0;
#X connect 19 0 25 0;
#X connect 20 0 11 1;
#X connect 22 0 14 1;
#X connect 24 0 17 1;
#X connect 26 0 1 0;
#X connect 27 0 11 0;
#X connect 28 0 14 0;
#X connect 29 0 17 0;
#X connect 30 0 31 0;
#X connect 31 0 32 0;
#X connect 31 1 33 0;
#X connect 31 2 34 0;
#X connect 31 3 35 0;
#X connect 32 0 36 0;
#X connect 33 0 36 0;
#X connect 34 0 36 0;
#X connect 35 0 36 0;
#X connect 36 0 37 0;
#X connect 36 1 38 0;
#X connect 36 2 39 0;
#X connect 36 3 40 0;
#X connect 36 4 41 0;
#X connect 37 0 42 0;
#X connect 38 0 42 0;
#X connect 39 0 42 0;
#X connect 40 0 42 0;
#X connect 41 0 42 0;
#X connect 43 0 32 0;
#X connect 44 0 33 0;
#X connect 45 0 34 0;
#X connect 46 0 35 0;
#X restore 343 303 pd direction;
#X floatatom 172 195 2 0 3 0 - #0-direction1-set #0-direction1;
#X floatatom 172 216 2 0 3 0 - #0-direction2-set #0-direction2;
#X floatatom 172 237 2 0 3 0 - #0-direction3-set #0-direction3;
#X floatatom 190 171 0 0 0 0 - #0-smooth0-set #0-smooth0;
#X floatatom 190 193 0 0 0 0 - #0-smooth1-set #0-smooth1;
#X floatatom 190 215 0 0 12 0 - #0-smooth2-set #0-smooth2;
#X floatatom 190 237 0 0 0 0 - #0-smooth3-set #0-smooth3;
#N canvas 290 478 1221 556 smooth 0;
#X obj 290 24 r \$0-select_toggle;
#X obj 290 89 == 0;
#X obj 330 89 == 1;
#X obj 370 89 == 2;
#X obj 410 89 == 3;
#X obj 33 411 s \$0-smooth0-set;
#X obj 193 411 s \$0-smooth1-set;
#X obj 343 411 s \$0-smooth2-set;
#X obj 503 411 s \$0-smooth3-set;
#X obj 33 297 spigot;
#X obj 192 297 spigot;
#X obj 342 297 spigot;
#X obj 502 297 spigot;
#X obj 27 22 r \$0-smooth;
#X obj 700 24 r \$0-select_toggle;
#X obj 700 49 sel 0 1 2 3;
#X obj 692 239 f;
#X obj 812 239 f;
#X obj 932 239 f;
#X obj 1052 239 f;
#X obj 710 102 r \$0-smooth0;
#X obj 830 102 r \$0-smooth1;
#X obj 950 102 r \$0-smooth2;
#X obj 1070 102 r \$0-smooth3;
#X floatatom 710 127 5 0 0 0 - - -;
#X obj 714 364 s \$0-smooth-set;
#X msg 692 264 set \$1;
#X msg 812 264 set \$1;
#X msg 932 264 set \$1;
#X msg 1052 264 set \$1;
#X connect 0 0 1 0;
#X connect 0 0 2 0;
#X connect 0 0 4 0;
#X connect 0 0 3 0;
#X connect 1 0 9 1;
#X connect 2 0 10 1;
#X connect 3 0 11 1;
#X connect 4 0 12 1;
#X connect 9 0 5 0;
#X connect 10 0 6 0;
#X connect 11 0 7 0;
#X connect 12 0 8 0;
#X connect 13 0 9 0;
#X connect 13 0 10 0;
#X connect 13 0 12 0;
#X connect 13 0 11 0;
#X connect 14 0 15 0;
#X connect 15 0 16 0;
#X connect 15 1 17 0;
#X connect 15 2 18 0;
#X connect 15 3 19 0;
#X connect 16 0 26 0;
#X connect 17 0 27 0;
#X connect 18 0 28 0;
#X connect 19 0 29 0;
#X connect 20 0 16 1;
#X connect 20 0 24 0;
#X connect 21 0 17 1;
#X connect 22 0 18 1;
#X connect 23 0 19 1;
#X connect 26 0 25 0;
#X connect 27 0 25 0;
#X connect 28 0 25 0;
#X connect 29 0 25 0;
#X restore 343 325 pd smooth;
#N canvas 702 392 867 642 ctl_objects 0;
#X obj 69 176 ctl_mod_send \$0 mod_wf0 0 0;
#X obj 75 67 ctl_cart \$0 smooth0 0 0;
#X obj 75 89 ctl_cart \$0 smooth1 0 1;
#X obj 75 111 ctl_cart \$0 smooth2 0 2;
#X obj 75 133 ctl_cart \$0 smooth3 0 3;
#X obj 278 67 ctl_cart \$0 direction0 0 4;
#X obj 278 89 ctl_cart \$0 direction1 0 5;
#X obj 278 111 ctl_cart \$0 direction2 0 6;
#X obj 278 133 ctl_cart \$0 direction3 0 7;
#X obj 766 302 ctl_mod_send \$0 mod_bc3 0 23;
#X obj 69 198 ctl_mod_send \$0 mod_tf0 0 1;
#X obj 67 224 ctl_mod_send \$0 mod_ra0 0 2;
#X obj 67 247 ctl_mod_send \$0 mod_rb0 0 3;
#X obj 69 271 ctl_mod_send \$0 mod_oc0 0 4;
#X obj 66 296 ctl_mod_send \$0 mod_bc0 0 5;
#X obj 286 176 ctl_mod_send \$0 mod_wf1 0 6;
#X obj 289 200 ctl_mod_send \$0 mod_tf1 0 7;
#X obj 287 226 ctl_mod_send \$0 mod_ra1 0 8;
#X obj 287 249 ctl_mod_send \$0 mod_rb1 0 9;
#X obj 289 273 ctl_mod_send \$0 mod_oc1 0 10;
#X obj 286 298 ctl_mod_send \$0 mod_bc1 0 11;
#X obj 526 176 ctl_mod_send \$0 mod_wf2 0 12;
#X obj 529 202 ctl_mod_send \$0 mod_tf2 0 13;
#X obj 527 228 ctl_mod_send \$0 mod_ra2 0 14;
#X obj 527 251 ctl_mod_send \$0 mod_rb2 0 15;
#X obj 529 275 ctl_mod_send \$0 mod_oc2 0 16;
#X obj 526 300 ctl_mod_send \$0 mod_bc2 0 17;
#X obj 756 176 ctl_mod_send \$0 mod_wf3 0 18;
#X obj 759 204 ctl_mod_send \$0 mod_tf3 0 19;
#X obj 757 230 ctl_mod_send \$0 mod_ra3 0 20;
#X obj 757 253 ctl_mod_send \$0 mod_rb3 0 21;
#X obj 759 277 ctl_mod_send \$0 mod_oc3 0 22;
#X restore 343 347 pd ctl_objects;
#X msg 174 321 const 0;
#X obj 174 346 s \$0-cart;
#X obj 443 41 inlet;
#X obj 458 248 s \$0-clock;
#X obj 33 33 cnv 15 32 15 empty \$0-cnv_title mod.1 1 9 1 16 -262144
-66577 0;
#X obj 59 51 bng 18 250 50 0 \$0-open_file \$0-open_file-set empty
17 7 0 10 -237435 -191407 -1;
#X obj 81 51 bng 17 250 50 0 \$0-save_file \$0-save_file-set empty
17 7 0 10 -261885 -191407 -1;
#X obj 80 51 cnv 10 19 18 empty \$0-cnv_save_file empty 2 12 1 18 -227296
-66577 0;
#X obj 36 51 bng 18 250 50 0 empty empty empty 17 7 0 10 -262144 -1
-1;
#N canvas 962 293 948 712 open_save 0;
#X msg 64 87 dir;
#X obj 64 112 pdcontrol;
#X msg 64 137 symbol \$1/presets;
#X obj 64 162 savepanel;
#X obj 64 187 list fromsymbol;
#X obj 65 236 list tosymbol;
#X obj 69 527 s \$0-filename-set;
#X obj 61 59 r \$0-save_file;
#X obj 318 49 r \$0-open_file;
#X msg 324 97 dir;
#X obj 324 122 pdcontrol;
#X msg 324 147 symbol \$1/presets;
#X obj 324 197 list fromsymbol;
#X obj 325 246 list tosymbol;
#X obj 324 172 openpanel;
#X obj 369 507 s \$0-filename-set;
#X obj 340 542 s \$0-preset_bank-set;
#X obj 65 261 t s s, f 10;
#X obj 325 271 t b s s;
#X obj 81 503 s \$0-cart;
#X obj 381 483 s \$0-cart;
#X obj 64 212 list split 52;
#X obj 324 222 list split 52;
#X msg 391 313 read /home/mensch/puredata/0.beemo/mod_cartridge/presets/\$1
, f 16;
#X msg 81 303 write /home/mensch/puredata/0.beemo/mod_cartridge/presets/\$1
, f 16;
#X connect 0 0 1 0;
#X connect 1 0 2 0;
#X connect 2 0 3 0;
#X connect 3 0 4 0;
#X connect 4 0 21 0;
#X connect 5 0 17 0;
#X connect 7 0 0 0;
#X connect 8 0 9 0;
#X connect 9 0 10 0;
#X connect 10 0 11 0;
#X connect 11 0 14 0;
#X connect 12 0 22 0;
#X connect 13 0 18 0;
#X connect 14 0 12 0;
#X connect 17 0 6 0;
#X connect 17 1 24 0;
#X connect 18 0 16 0;
#X connect 18 1 15 0;
#X connect 18 2 23 0;
#X connect 21 1 5 0;
#X connect 22 1 13 0;
#X connect 23 0 20 0;
#X connect 24 0 19 0;
#X restore 343 193 pd open_save;
#X symbolatom 173 259 0 0 0 0 - #0-filename-set #0-filename;
#X obj 33 51 cnv 10 45 18 empty \$0-cnv_filename one 0 11 1 18 -228856
-66577 0;
#X obj 40 289 mod_send \$0 0;
#X obj 51 311 mod_send \$0 1;
#X obj 62 333 mod_send \$0 2;
#X obj 72 355 mod_send \$0 3;
#X obj 55 414 outlet;
#X obj 298 57 cnv 10 122 21 empty \$0-cnv_bg empty 20 12 0 14 -228856
-262144 0;
#X text 302 39 wf;
#X text 322 39 tf;
#X text 342 39 r1;
#X text 362 39 r2;
#X text 382 39 oc;
#X text 401 39 bc;
#N canvas 0 59 521 423 bg_color 0;
#X obj 82 273 s \$0-cnv_bg;
#X msg 353 215 117;
#X msg 250 213 97;
#X msg 153 216 77;
#X msg 65 209 57;
#X msg 83 246 pos 298 \$1;
#X msg 58 130 color #dfdfdf #ffffff #ffffff, f 9;
#X msg 347 130 color #ffc7c6 #ffffff #ffffff, f 9;
#X msg 251 130 color #bbbbbb #ffffff #ffffff, f 9;
#X msg 144 130 color #feffcb #ffffff #ffffff, f 9;
#X obj 107 60 r \$0-select_toggle;
#X obj 107 85 sel 0 1 2 3;
#X connect 1 0 5 0;
#X connect 2 0 5 0;
#X connect 3 0 5 0;
#X connect 4 0 5 0;
#X connect 5 0 0 0;
#X connect 6 0 0 0;
#X connect 7 0 0 0;
#X connect 8 0 0 0;
#X connect 9 0 0 0;
#X connect 10 0 11 0;
#X connect 11 0 6 0;
#X connect 11 0 4 0;
#X connect 11 1 9 0;
#X connect 11 1 3 0;
#X connect 11 2 8 0;
#X connect 11 2 2 0;
#X connect 11 3 7 0;
#X connect 11 3 1 0;
#X restore 343 171 pd bg_color;
#N canvas 0 91 286 231 title 0;
#X obj 29 74 r \$0-select_toggle;
#X obj 29 154 s \$0-cnv_title;
#X msg 29 129 label mod.\$1;
#X obj 29 99 + 1;
#X connect 0 0 3 0;
#X connect 2 0 1 0;
#X connect 3 0 2 0;
#X restore 344 149 pd title;
#X obj 951 349 loadbang;
#X msg 951 374 0;
#X obj 301 59 tgl 17 0 \$0-mod_wf0 \$0-mod_wf0-set empty 17 7 0 10
-187246 -262144 -228856 0 1;
#X obj 321 59 tgl 17 0 \$0-mod_tf0 \$0-mod_tf0-set empty 17 7 0 10
-187246 -262144 -228856 0 1;
#X obj 341 59 tgl 17 0 \$0-mod_ra0 \$0-mod_ra0-set empty 17 7 0 10
-187246 -262144 -228856 0 1;
#X obj 361 59 tgl 17 0 \$0-mod_rb0 \$0-mod_rb0-set empty 17 7 0 10
-187246 -262144 -228856 0 1;
#X obj 381 59 tgl 17 0 \$0-mod_oc0 \$0-mod_oc0-set empty 17 7 0 10
-187246 -262144 -228856 0 1;
#X obj 401 59 tgl 17 0 \$0-mod_bc0 \$0-mod_bc0-set empty 17 7 0 10
-187246 -262144 -228856 1 1;
#X obj 301 79 tgl 17 0 \$0-mod_wf1 \$0-mod_wf1-set empty 17 7 0 10
-216373 -257985 -228856 1 1;
#X obj 321 79 tgl 17 0 \$0-mod_tf1 \$0-mod_tf1-set empty 17 7 0 10
-216373 -257985 -228856 0 1;
#X obj 341 79 tgl 17 0 \$0-mod_ra1 \$0-mod_ra1-set empty 17 7 0 10
-216373 -257985 -228856 0 1;
#X obj 361 79 tgl 17 0 \$0-mod_rb1 \$0-mod_rb1-set empty 17 7 0 10
-216373 -257985 -228856 0 1;
#X obj 381 79 tgl 17 0 \$0-mod_oc1 \$0-mod_oc1-set empty 17 7 0 10
-216373 -257985 -228856 0 1;
#X obj 401 79 tgl 17 0 \$0-mod_bc1 \$0-mod_bc1-set empty 17 7 0 10
-216373 -257985 -228856 0 1;
#X obj 301 99 tgl 17 0 \$0-mod_wf2 \$0-mod_wf2-set empty 17 7 0 10
-233017 -133153 -228856 0 1;
#X obj 321 99 tgl 17 0 \$0-mod_tf2 \$0-mod_tf2-set empty 17 7 0 10
-233017 -133153 -228856 1 1;
#X obj 341 99 tgl 17 0 \$0-mod_ra2 \$0-mod_ra2-set empty 17 7 0 10
-233017 -133153 -228856 0 1;
#X obj 361 99 tgl 17 0 \$0-mod_rb2 \$0-mod_rb2-set empty 17 7 0 10
-233017 -133153 -228856 0 1;
#X obj 381 99 tgl 17 0 \$0-mod_oc2 \$0-mod_oc2-set empty 17 7 0 10
-233017 -133153 -228856 0 1;
#X obj 401 99 tgl 17 0 \$0-mod_bc2 \$0-mod_bc2-set empty 17 7 0 10
-233017 -133153 -228856 0 1;
#X obj 301 119 tgl 17 0 \$0-mod_wf3 \$0-mod_wf3-set empty 17 7 0 10
-249661 -227296 -228856 0 1;
#X obj 321 119 tgl 17 0 \$0-mod_tf3 \$0-mod_tf3-set empty 17 7 0 10
-249661 -227296 -228856 0 1;
#X obj 341 119 tgl 17 0 \$0-mod_ra3 \$0-mod_ra3-set empty 17 7 0 10
-249661 -227296 -228856 0 1;
#X obj 361 119 tgl 17 0 \$0-mod_rb3 \$0-mod_rb3-set empty 17 7 0 10
-249661 -227296 -228856 0 1;
#X obj 381 119 tgl 17 0 \$0-mod_oc3 \$0-mod_oc3-set empty 17 7 0 10
-249661 -227296 -228856 0 1;
#X obj 401 119 tgl 17 0 \$0-mod_bc3 \$0-mod_bc3-set empty 17 7 0 10
-249661 -227296 -228856 0 1;
#X obj 951 399 s \$0-preset_bank;
#X obj 500 107 pipe 30;
#X obj 467 219 s \$0-preset_bank-set;
#X obj 102 86 bng 15 250 50 0 empty empty empty 17 7 0 10 -262144 -1
-1;
#X obj 117 86 bng 15 250 50 0 \$0-write_next \$0-write_next-set empty
17 7 0 10 -261885 -191407 -1;
#X obj 101 85 cnv 10 32 18 empty \$0-cnv_save_file next 0 12 1 14 -261234
-66577 0;
#X obj 710 141 r \$0-write_next;
#X obj 710 166 del 30;
#X obj 764 167 r \$0-preset_bank;
#X obj 764 192 + 1;
#X obj 764 217 % 9;
#X obj 723 255 f;
#X obj 723 280 s \$0-preset_bank-set;
#X obj 443 66 route bang link next;
#X obj 503 190 s \$0-write_next-set;
#X obj 117 33 bng 16 250 50 0 \$0-init \$0-init-set init -22 9 1 14
-262144 -1 -1;
#X obj 593 365 bng 15 250 50 0 empty empty empty 17 7 0 10 -262144
-1 -1;
#X obj 593 385 f \$0;
#X floatatom 593 410 5 0 0 0 - - -;
#X obj 482 495 r \$0-filename;
#X obj 482 570 s \$0-cnv_filename;
#X msg 482 520 label \$1;
#N canvas 285 208 193 263 counter 0;
#X obj 11 16 counter \$0 0;
#X obj 11 38 counter \$0 1;
#X obj 11 60 counter \$0 2;
#X obj 11 82 counter \$0 3;
#X restore 58 174 pd counter;
#N canvas 57 638 426 432 bookkeeping 1;
#X obj 154 164 declare -path ../objects;
#X obj 161 186 declare -path ../../lib;
#N canvas 0 50 450 250 (subpatch) 0;
#X array \$0-long 14 float 3;
#A 0 0 1 2 3 4 5 6 7 6 5 4 3 2 1;
#X coords 0 7 14 0 80 59 1 0 0;
#X restore 131 102 graph;
#X msg 113 230 0 0 1 2 3 4 5 6 7 6 5 4 3 2 1;
#X obj 113 255 s \$0-long;
#X obj 49 208 array define -k -yrange 0 4 \$0-cart 576;
#A 0 0.40625 0.40625 0.40625 0.428571 0 0 0.34375 0 0.375 0.447917
0.285714 0.428571 0.875 0.395833 0 0.28125 0.572917 0.479167 0.416667
0.428571 0.34375 0.28125 0.197917 0.0520833 0 0.0833333 0.145833 0.428571
0.395833 0.25 0.489583 0.770833 0 0 0 0.428571 0 0 0.46875 0 0.40625
0.21875 0.285714 0.428571 0.416667 0.714286 0.520833 0.822917 0 0 0
0.428571 0 0.270833 0.885417 0 0 0.142857 0.285714 0.428571 0.571429
0.714286 0.857143 1 0 0 0.0729167 0.428571 0 0.166667 0.302083 0.0520833
0 0.142857 0.285714 0.428571 0.571429 0.714286 0.857143 1 0 0.142857
0.285714 0.428571 0.571429 0.714286 0.857143 1 0 0.142857 0.285714
0.428571 0.571429 0.714286 0.857143 1 0 0.142857 0.285714 0.428571
0.571429 0.714286 0.857143 1 0 0.142857 0.285714 0.428571 0.571429
0.714286 0.857143 1 0 0.142857 0.285714 0.428571 0.571429 0.714286
0.857143 1 0 0.142857 0.285714 0.428571 0.571429 0.714286 0.857143
1 0 0.142857 0.285714 0.428571 0.571429 0.714286 0.857143 1 0 0.142857
0.285714 0.428571 0.571429 0.714286 0.857143 1 0 0.142857 0.285714
0.428571 0.571429 0.714286 0.857143 1 0 0.142857 0.285714 0.428571
0.571429 0.714286 0.857143 1 0 0.142857 0.285714 0.428571 0.571429
0.714286 0.857143 1 0 0.142857 0.285714 0.428571 0.571429 0.714286
0.857143 1 0 0.142857 0.285714 0.428571 0.571429 0.714286 0.857143
1 0 0.142857 0.285714 0.428571 0.571429 0.714286 0.857143 1 0 0.142857
0.285714 0.428571 0.571429 0.714286 0.857143 1 0 0.142857 0.285714
0.428571 0.571429 0.714286 0.857143 1 0 0.142857 0.285714 0.428571
0.571429 0.714286 0.857143 1 0 0.142857 0.285714 0.428571 0.571429
0.714286 0.857143 1 0 0.142857 0.285714 0.428571 0.571429 0.714286
0.857143 1 0 0.142857 0.285714 0.428571 0.571429 0.714286 0.857143
1 0 0.142857 0.285714 0.428571 0.571429 0.714286 0.857143 1 0 0.142857
0.285714 0.428571 0.571429 0.714286 0.857143 1 0 0.142857 0.285714
0.428571 0.571429 0.714286 0.857143 1 0 0.142857 0.285714 0.428571
0.571429 0.714286 0.857143 1 0 0.142857 0.285714 0.428571 0.571429
0.714286 0.857143 1 0 0.142857 0.285714 0.428571 0.571429 0.714286
0.857143 1 0.42 0.32 0.28 0 1 1 3 0 0.85 0.3 0.54 0 1 1 3 0 0.43 0.3
0.54 0 1 1 3 0 0.42 0.32 0.28 0 1 1 3 0 0.42 0.32 0.28 0 1 1 3 0 0.42
0.32 0.28 0 1 1 3 0 0.42 0.32 0.28 0 1 1 3 0 0.42 0.32 0.28 0 1 1 3
0 0.42 0.32 0.28 0 1 1 3 0 0 0 0 0 0 1 1 0 0 1 0 0 0 1 0 0 0 0 0 0
0 0 0 0 0 0 0 0 0 1 1 0 0 1 0 0 0 1 0 0 0 0 0 0 0 0 0 0 0 0 0 0 0 1
1 0 0 0 0 0 0 1 0 0 0 0 0 0 0 0 0 0 0 0 0 0 0 1 1 0 0 1 0 0 0 1 0 0
0 0 0 0 0 0 0 0 0 0 0 0 0 1 1 0 0 1 0 0 0 1 0 0 0 0 0 0 0 0 0 0 0 0
0 0 0 1 1 0 0 1 0 0 0 1 0 0 0 0 0 0 0 0 0 0 0 0 0 0 0 1 1 0 0 1 0 0
0 1 0 0 0 0 0 0 0 0 0 0 0 0 0 0 0 1 1 0 0 1 0 0 0 1 0 0 0 0 0 0 0 0
0 0 0 0 0 0 0 1 1 0 0 1 0 0 0 1 0 0 0 0 0 0 0 0 0 0;
#X connect 3 0 4 0;
#X restore 161 565 pd bookkeeping;
#X connect 22 0 23 0;
#X connect 24 0 87 0;
#X connect 30 0 27 0;
#X connect 34 0 38 0;
#X connect 35 0 38 0;
#X connect 36 0 38 0;
#X connect 37 0 38 0;
#X connect 48 0 49 0;
#X connect 49 0 74 0;
#X connect 75 0 76 0;
#X connect 77 0 78 0;
#X connect 80 0 81 0;
#X connect 81 0 85 0;
#X connect 82 0 83 0;
#X connect 83 0 84 0;
#X connect 84 0 85 1;
#X connect 85 0 86 0;
#X connect 87 0 25 0;
#X connect 87 1 75 0;
#X connect 87 1 76 0;
#X connect 87 2 88 0;
#X connect 90 0 91 0;
#X connect 91 0 92 0;
#X connect 93 0 95 0;
#X connect 95 0 94 0;
#X coords 0 -1 1 1 392 110 2 30 30;
